<?xml version="1.0" encoding="utf-8"?>
<!-- Generator: Adobe Adobe Illustrator 24.2.0, SVG Export Plug-In . SVG Version: 6.00 Build 0)  -->
<svg version="1.1" id="Layer_1" xmlns="http://www.w3.org/2000/svg" xmlns:xlink="http://www.w3.org/1999/xlink" x="0px" y="0px"
	 width="1920px" height="1080px" viewBox="0 0 1920 1080" style="enable-background:new 0 0 1920 1080;" xml:space="preserve">
<style type="text/css">
	.st0{clip-path:url(#SVGID_2_);}
	.st1{fill:#FFFFFF;}
	.st2{fill:#00333B;}
	.st3{fill:#00282C;}
	.st4{opacity:0.13;}
	.st5{fill:#295626;}
	.st6{fill:#43722D;}
	.st7{fill:#008A4A;}
	.st8{fill:#71A22F;}
	.st9{fill:#007938;}
	.st10{clip-path:url(#SVGID_4_);}
</style>
<g>
	<defs>
		<rect id="SVGID_1_" x="-0.5" width="1920" height="1080"/>
	</defs>
	<clipPath id="SVGID_2_">
		<use xlink:href="#SVGID_1_"  style="overflow:visible;"/>
	</clipPath>
	<g id="Web_1920_1" class="st0">
		<rect x="-0.5" class="st1" width="1920" height="1080"/>
		<rect id="Rectangle_895" x="0.5" y="5" class="st2" width="1920" height="1031"/>
		<rect id="Rectangle_894" x="-0.5" class="st3" width="1920" height="280"/>
		<g id="Group_7" transform="translate(1)" class="st4">
			<path id="Path_549" class="st5" d="M119.4,227.3l-45-44.9l45-44.9V227.3z"/>
			<path id="Path_550" class="st6" d="M89.5,162.9v29.9l-15-15L89.5,162.9z"/>
			<path id="Path_551" class="st6" d="M119.4,162.9v29.9l-15-15L119.4,162.9z"/>
			<path id="Path_552" class="st6" d="M104.4,182.4v29.9l-15-15L104.4,182.4z"/>
			<path id="Path_553" class="st6" d="M119.4,197.3v29.9l-15-15L119.4,197.3z"/>
			<path id="Path_554" class="st6" d="M104.4,146.2v29.9l-15-15L104.4,146.2z"/>
			<path id="Path_555" class="st6" d="M119.4,129.5v29.9l-15-15L119.4,129.5z"/>
			<path id="Path_556" class="st5" d="M-0.5,227.3l45-44.9l-45-44.9V227.3z"/>
			<path id="Path_557" class="st6" d="M29.5,192.8v-29.9l15,15L29.5,192.8z"/>
			<path id="Path_558" class="st6" d="M-0.5,192.8l15-15l-15-15V192.8z"/>
			<path id="Path_559" class="st6" d="M14.5,176.1v-29.9l15,15L14.5,176.1z"/>
			<path id="Path_560" class="st6" d="M-0.5,159.4l15-15l-15-15V159.4z"/>
			<path id="Path_561" class="st6" d="M14.5,212.3v-29.9l15,15L14.5,212.3z"/>
			<path id="Path_562" class="st6" d="M-0.5,227.3l15-15l-15-15V227.3z"/>
			<path id="Path_563" class="st5" d="M119.4,99.9L74.5,55l45-44.9V99.9z"/>
			<path id="Path_564" class="st6" d="M89.5,44.6v29.9l-15-15L89.5,44.6z"/>
			<path id="Path_565" class="st6" d="M119.4,44.6v29.9l-15-15L119.4,44.6z"/>
			<path id="Path_566" class="st6" d="M104.4,61.3v29.9l-15-15L104.4,61.3z"/>
			<path id="Path_567" class="st6" d="M119.4,78.1V108l-15-15L119.4,78.1z"/>
			<path id="Path_568" class="st6" d="M104.4,25V55l-15-15L104.4,25z"/>
			<path id="Path_569" class="st6" d="M119.4,10.1V40l-15-15L119.4,10.1z"/>
			<path id="Path_570" class="st5" d="M-0.5,99.9l45-44.9l-45-44.9V99.9z"/>
			<path id="Path_571" class="st6" d="M29.5,74.6V44.6l15,15L29.5,74.6z"/>
			<path id="Path_572" class="st6" d="M-0.5,74.6l15-15l-15-15V74.6z"/>
			<path id="Path_573" class="st6" d="M14.5,55V25l15,15L14.5,55z"/>
			<path id="Path_574" class="st6" d="M-0.5,40l15-15l-15-15V40z"/>
			<path id="Path_575" class="st6" d="M14.5,91.3V61.3l15,15L14.5,91.3z"/>
			<path id="Path_576" class="st6" d="M-0.5,108l15-15l-15-15V108z"/>
			<path id="Path_577" class="st6" d="M46.8,156.2h25.3l-12.7,13.9L46.8,156.2z M31.9,139.9h55.2l-8.2,9H40.1L31.9,139.9z
				 M15.4,121.8h88.1l-9.8,10.7H25.2L15.4,121.8z M23.6,105.3h71.8l8.4,9.2H15.2L23.6,105.3z M39.5,87.8h39.9l9.3,10.2H30.3
				L39.5,87.8z M59.5,65.9l13.3,14.6H46.2L59.5,65.9z M107,0L95.1,13H31.7l6.7,7.3h50L77,32.9H49.9l6.7,7.3h13.8l-6.9,7.6l-3.9,4.3
				L12,0H-0.5l53.7,59l-53.7,59l53.7,59l-53.7,59H12l12.5-13.7h62l-6.7-7.3H31.1l11.5-12.6h25.7l-6.7-7.3H49.2l6.5-7.2l3.7-4.1
				L107,236h12.5l-53.7-59l53.7-59L65.7,59l53.7-59H107z"/>
			<path id="Path_578" class="st5" d="M239.4,227.3l-45-44.9l45-44.9V227.3z"/>
			<path id="Path_579" class="st6" d="M209.4,162.9v29.9l-15-15L209.4,162.9z"/>
			<path id="Path_580" class="st6" d="M239.4,162.9v29.9l-15-15L239.4,162.9z"/>
			<path id="Path_581" class="st6" d="M224.4,182.4v29.9l-15-15L224.4,182.4z"/>
			<path id="Path_582" class="st6" d="M239.4,197.3v29.9l-15-15L239.4,197.3z"/>
			<path id="Path_583" class="st6" d="M224.4,146.2v29.9l-15-15L224.4,146.2z"/>
			<path id="Path_584" class="st6" d="M239.4,129.5v29.9l-15-15L239.4,129.5z"/>
			<path id="Path_585" class="st5" d="M119.4,137.4l45,44.9l-45,44.9V137.4z"/>
			<path id="Path_586" class="st6" d="M149.4,192.8v-29.9l15,15L149.4,192.8z"/>
			<path id="Path_587" class="st6" d="M119.4,192.8v-29.9l15,15L119.4,192.8z"/>
			<path id="Path_588" class="st6" d="M134.4,176.1v-29.9l15,15L134.4,176.1z"/>
			<path id="Path_589" class="st6" d="M119.4,159.4v-29.9l15,15L119.4,159.4z"/>
			<path id="Path_590" class="st6" d="M134.4,212.3v-29.9l15,15L134.4,212.3z"/>
			<path id="Path_591" class="st6" d="M119.4,227.3v-29.9l15,15L119.4,227.3z"/>
			<path id="Path_592" class="st5" d="M239.4,99.9l-45-44.9l45-44.9V99.9z"/>
			<path id="Path_593" class="st6" d="M209.4,44.6v29.9l-15-15L209.4,44.6z"/>
			<path id="Path_594" class="st6" d="M239.4,44.6v29.9l-15-15L239.4,44.6z"/>
			<path id="Path_595" class="st6" d="M224.4,61.3v29.9l-15-15L224.4,61.3z"/>
			<path id="Path_596" class="st6" d="M239.4,78.1V108l-15-15L239.4,78.1z"/>
			<path id="Path_597" class="st6" d="M224.4,25V55l-15-15L224.4,25z"/>
			<path id="Path_598" class="st6" d="M239.4,10.1V40l-15-15L239.4,10.1z"/>
			<path id="Path_599" class="st5" d="M119.4,10.1l45,44.9l-45,44.9V10.1z"/>
			<path id="Path_600" class="st6" d="M149.4,74.6V44.6l15,15L149.4,74.6z"/>
			<path id="Path_601" class="st6" d="M119.4,74.6V44.6l15,15L119.4,74.6z"/>
			<path id="Path_602" class="st6" d="M134.4,55V25l15,15L134.4,55z"/>
			<path id="Path_603" class="st6" d="M119.4,40V10.1l15,15L119.4,40z"/>
			<path id="Path_604" class="st6" d="M134.4,91.3V61.3l15,15L134.4,91.3z"/>
			<path id="Path_605" class="st6" d="M119.4,108V78.1l15,15L119.4,108z"/>
			<path id="Path_606" class="st6" d="M166.7,156.2h25.3l-12.7,13.9L166.7,156.2z M151.8,139.9H207l-8.2,9.1h-38.7L151.8,139.9z
				 M135.4,121.8h88.1l-9.8,10.7h-68.5L135.4,121.8z M143.5,105.3h71.8l8.4,9.2h-88.5L143.5,105.3z M159.5,87.8h39.9l9.3,10.2h-58.4
				L159.5,87.8z M179.4,65.9l13.3,14.6h-26.5L179.4,65.9z M226.9,0L215,13h-63.4l6.7,7.3h50l-11.5,12.6h-27.1l6.7,7.3h13.8l-6.9,7.6
				l-3.9,4.3L131.9,0h-12.5l53.7,59l-53.7,59l53.7,59l-53.7,59h12.5l12.5-13.7h62l-6.7-7.3h-48.6l11.5-12.6h25.7l-6.7-7.3h-12.4
				l6.5-7.2l3.7-4.1l47.5,52.2h12.5l-53.7-59l53.7-59l-53.7-59l53.7-59H226.9z"/>
			<path id="Path_607" class="st5" d="M359.3,227.3l-45-44.9l45-44.9V227.3z"/>
			<path id="Path_608" class="st6" d="M329.3,162.9v29.9l-15-15L329.3,162.9z"/>
			<path id="Path_609" class="st6" d="M359.3,162.9v29.9l-15-15L359.3,162.9z"/>
			<path id="Path_610" class="st6" d="M344.3,182.4v29.9l-15-15L344.3,182.4z"/>
			<path id="Path_611" class="st6" d="M359.3,197.3v29.9l-15-15L359.3,197.3z"/>
			<path id="Path_612" class="st6" d="M344.3,146.2v29.9l-15-15L344.3,146.2z"/>
			<path id="Path_613" class="st6" d="M359.3,129.5v29.9l-15-15L359.3,129.5z"/>
			<path id="Path_614" class="st5" d="M239.4,137.4l45,44.9l-45,44.9V137.4z"/>
			<path id="Path_615" class="st6" d="M269.4,192.8v-29.9l15,15L269.4,192.8z"/>
			<path id="Path_616" class="st6" d="M239.4,192.8v-29.9l15,15L239.4,192.8z"/>
			<path id="Path_617" class="st6" d="M254.4,176.1v-29.9l15,15L254.4,176.1z"/>
			<path id="Path_618" class="st6" d="M239.4,159.4v-29.9l15,15L239.4,159.4z"/>
			<path id="Path_619" class="st6" d="M254.4,212.3v-29.9l15,15L254.4,212.3z"/>
			<path id="Path_620" class="st6" d="M239.4,227.3v-29.9l15,15L239.4,227.3z"/>
			<path id="Path_621" class="st5" d="M359.3,99.9l-45-44.9l45-44.9V99.9z"/>
			<path id="Path_622" class="st6" d="M329.3,44.6v29.9l-15-15L329.3,44.6z"/>
			<path id="Path_623" class="st6" d="M359.3,44.6v29.9l-15-15L359.3,44.6z"/>
			<path id="Path_624" class="st6" d="M344.3,61.3v29.9l-15-15L344.3,61.3z"/>
			<path id="Path_625" class="st6" d="M359.3,78.1V108l-15-15L359.3,78.1z"/>
			<path id="Path_626" class="st6" d="M344.3,25V55l-15-15L344.3,25z"/>
			<path id="Path_627" class="st6" d="M359.3,10.1V40l-15-15L359.3,10.1z"/>
			<path id="Path_628" class="st5" d="M239.4,10.1l45,44.9l-45,44.9V10.1z"/>
			<path id="Path_629" class="st6" d="M269.4,74.6V44.6l15,15L269.4,74.6z"/>
			<path id="Path_630" class="st6" d="M239.4,74.6V44.6l15,15L239.4,74.6z"/>
			<path id="Path_631" class="st6" d="M254.4,55V25l15,15L254.4,55z"/>
			<path id="Path_632" class="st6" d="M239.4,40V10.1l15,15L239.4,40z"/>
			<path id="Path_633" class="st6" d="M254.4,91.3V61.3l15,15L254.4,91.3z"/>
			<path id="Path_634" class="st6" d="M239.4,108V78.1l15,15L239.4,108z"/>
			<path id="Path_635" class="st6" d="M286.7,156.2H312l-12.7,13.9L286.7,156.2z M271.8,139.9h55.2l-8.2,9H280L271.8,139.9z
				 M255.3,121.8h88.1l-9.8,10.7h-68.5L255.3,121.8z M263.5,105.3h71.8l8.4,9.2h-88.5L263.5,105.3z M279.4,87.8h39.9l9.3,10.2h-58.4
				L279.4,87.8z M299.3,65.9l13.3,14.6h-26.5L299.3,65.9z M346.8,0L335,13h-63.4l6.7,7.3h50l-11.5,12.6h-27.1l6.7,7.3h13.8l-6.9,7.6
				l-3.9,4.3L251.9,0h-12.5l53.7,59l-53.7,59l53.7,59l-53.7,59h12.5l12.5-13.7h62l-6.7-7.3H271l11.5-12.6h25.7l-6.7-7.3h-12.4
				l6.5-7.2l3.7-4.1l47.5,52.2h12.5l-53.7-59l53.7-59l-53.7-59l53.7-59H346.8z"/>
			<path id="Path_636" class="st5" d="M479.2,227.3l-45-44.9l45-44.9L479.2,227.3z"/>
			<path id="Path_637" class="st6" d="M449.3,162.9v29.9l-15-15L449.3,162.9z"/>
			<path id="Path_638" class="st6" d="M479.2,162.9v29.9l-15-15L479.2,162.9z"/>
			<path id="Path_639" class="st6" d="M464.3,182.4v29.9l-15-15L464.3,182.4z"/>
			<path id="Path_640" class="st6" d="M479.2,197.3v29.9l-15-15L479.2,197.3z"/>
			<path id="Path_641" class="st6" d="M464.3,146.2v29.9l-15-15L464.3,146.2z"/>
			<path id="Path_642" class="st6" d="M479.2,129.5v29.9l-15-15L479.2,129.5z"/>
			<path id="Path_643" class="st5" d="M359.3,137.4l45,44.9l-45,44.9V137.4z"/>
			<path id="Path_644" class="st6" d="M389.3,192.8v-29.9l15,15L389.3,192.8z"/>
			<path id="Path_645" class="st6" d="M359.3,192.8v-29.9l15,15L359.3,192.8z"/>
			<path id="Path_646" class="st6" d="M374.3,176.1v-29.9l15,15L374.3,176.1z"/>
			<path id="Path_647" class="st6" d="M359.3,159.4v-29.9l15,15L359.3,159.4z"/>
			<path id="Path_648" class="st6" d="M374.3,212.3v-29.9l15,15L374.3,212.3z"/>
			<path id="Path_649" class="st6" d="M359.3,227.3v-29.9l15,15L359.3,227.3z"/>
			<path id="Path_650" class="st5" d="M479.2,99.9l-45-44.9l45-44.9V99.9z"/>
			<path id="Path_651" class="st6" d="M449.3,44.6v29.9l-15-15L449.3,44.6z"/>
			<path id="Path_652" class="st6" d="M479.2,44.6v29.9l-15-15L479.2,44.6z"/>
			<path id="Path_653" class="st6" d="M464.3,61.3v29.9l-15-15L464.3,61.3z"/>
			<path id="Path_654" class="st6" d="M479.2,78.1V108l-15-15L479.2,78.1z"/>
			<path id="Path_655" class="st6" d="M464.3,25V55l-15-15L464.3,25z"/>
			<path id="Path_656" class="st6" d="M479.2,10.1V40l-15-15L479.2,10.1z"/>
			<path id="Path_657" class="st5" d="M359.3,10.1l45,44.9l-45,44.9V10.1z"/>
			<path id="Path_658" class="st6" d="M389.3,74.6V44.6l15,15L389.3,74.6z"/>
			<path id="Path_659" class="st6" d="M359.3,74.6V44.6l15,15L359.3,74.6z"/>
			<path id="Path_660" class="st6" d="M374.3,55V25l15,15L374.3,55z"/>
			<path id="Path_661" class="st6" d="M359.3,40V10.1l15,15L359.3,40z"/>
			<path id="Path_662" class="st6" d="M374.3,91.3V61.3l15,15L374.3,91.3z"/>
			<path id="Path_663" class="st6" d="M359.3,108V78.1l15,15L359.3,108z"/>
			<path id="Path_664" class="st6" d="M406.6,156.2H432l-12.7,13.9L406.6,156.2z M391.7,139.9h55.2l-8.2,9.1h-38.7L391.7,139.9z
				 M375.2,121.8h88.1l-9.8,10.7H385L375.2,121.8z M383.4,105.3h71.8l8.4,9.2H375L383.4,105.3z M399.3,87.8h39.9l9.3,10.2h-58.4
				L399.3,87.8z M419.3,65.9l13.3,14.6H406L419.3,65.9z M466.8,0l-11.9,13h-63.4l6.7,7.3h50l-11.5,12.6h-27.1l6.7,7.3h13.8l-6.9,7.6
				l-3.9,4.3L371.8,0h-12.5L413,59l-53.7,59l53.7,59l-53.7,59h12.5l12.5-13.7h62l-6.7-7.3h-48.6l11.5-12.6h25.7l-6.7-7.3h-12.4
				l6.5-7.2l3.7-4.1l47.5,52.2h12.5l-53.7-59l53.7-59l-53.7-59l53.7-59H466.8z"/>
			<path id="Path_665" class="st5" d="M599.2,227.3l-45-44.9l45-44.9V227.3z"/>
			<path id="Path_666" class="st6" d="M569.2,162.9v29.9l-15-15L569.2,162.9z"/>
			<path id="Path_667" class="st6" d="M599.2,162.9v29.9l-15-15L599.2,162.9z"/>
			<path id="Path_668" class="st6" d="M584.2,182.4v29.9l-15-15L584.2,182.4z"/>
			<path id="Path_669" class="st6" d="M599.2,197.3v29.9l-15-15L599.2,197.3z"/>
			<path id="Path_670" class="st6" d="M584.2,146.2v29.9l-15-15L584.2,146.2z"/>
			<path id="Path_671" class="st6" d="M599.2,129.5v29.9l-15-15L599.2,129.5z"/>
			<path id="Path_672" class="st5" d="M479.2,137.4l45,44.9l-45,44.9V137.4z"/>
			<path id="Path_673" class="st6" d="M509.2,192.8v-29.9l15,15L509.2,192.8z"/>
			<path id="Path_674" class="st6" d="M479.2,192.8v-29.9l15,15L479.2,192.8z"/>
			<path id="Path_675" class="st6" d="M494.2,176.1v-29.9l15,15L494.2,176.1z"/>
			<path id="Path_676" class="st6" d="M479.2,159.4v-29.9l15,15L479.2,159.4z"/>
			<path id="Path_677" class="st6" d="M494.2,212.3v-29.9l15,15L494.2,212.3z"/>
			<path id="Path_678" class="st6" d="M479.2,227.3v-29.9l15,15L479.2,227.3z"/>
			<path id="Path_679" class="st5" d="M599.2,99.9l-45-44.9l45-44.9V99.9z"/>
			<path id="Path_680" class="st6" d="M569.2,44.6v29.9l-15-15L569.2,44.6z"/>
			<path id="Path_681" class="st6" d="M599.2,44.6v29.9l-15-15L599.2,44.6z"/>
			<path id="Path_682" class="st6" d="M584.2,61.3v29.9l-15-15L584.2,61.3z"/>
			<path id="Path_683" class="st6" d="M599.2,78.1V108l-15-15L599.2,78.1z"/>
			<path id="Path_684" class="st6" d="M584.2,25V55l-15-15L584.2,25z"/>
			<path id="Path_685" class="st6" d="M599.2,10.1V40l-15-15L599.2,10.1z"/>
			<path id="Path_686" class="st5" d="M479.2,10.1l45,44.9l-45,44.9V10.1z"/>
			<path id="Path_687" class="st6" d="M509.2,74.6V44.6l15,15L509.2,74.6z"/>
			<path id="Path_688" class="st6" d="M479.2,74.6V44.6l15,15L479.2,74.6z"/>
			<path id="Path_689" class="st6" d="M494.2,55V25l15,15L494.2,55z"/>
			<path id="Path_690" class="st6" d="M479.2,40V10.1l15,15L479.2,40z"/>
			<path id="Path_691" class="st6" d="M494.2,91.3V61.3l15,15L494.2,91.3z"/>
			<path id="Path_692" class="st6" d="M479.2,108V78.1l15,15L479.2,108z"/>
			<path id="Path_693" class="st6" d="M526.5,156.2h25.3l-12.7,13.9L526.5,156.2z M511.6,139.9h55.2l-8.2,9h-38.7L511.6,139.9z
				 M495.2,121.8h88.1l-9.8,10.7h-68.5L495.2,121.8z M503.3,105.3h71.8l8.4,9.2H495L503.3,105.3z M519.3,87.8h39.9l9.3,10.2H510
				L519.3,87.8z M539.2,65.9l13.3,14.6H526L539.2,65.9z M586.7,0l-11.9,13h-63.4l6.7,7.3h50l-11.5,12.6h-27.1l6.7,7.3H550l-6.9,7.6
				l-3.9,4.3L491.7,0h-12.5L533,59l-53.7,59l53.7,59l-53.7,59h12.5l12.5-13.7h62l-6.7-7.3h-48.6l11.5-12.6h25.7l-6.7-7.3H529
				l6.5-7.2l3.7-4.1l47.5,52.2h12.5l-53.7-59l53.7-59l-53.7-59l53.7-59H586.7z"/>
			<path id="Path_694" class="st5" d="M719.1,227.3l-45-44.9l45-44.9V227.3z"/>
			<path id="Path_695" class="st6" d="M689.1,162.9v29.9l-15-15L689.1,162.9z"/>
			<path id="Path_696" class="st6" d="M719.1,162.9v29.9l-15-15L719.1,162.9z"/>
			<path id="Path_697" class="st6" d="M704.1,182.4v29.9l-15-15L704.1,182.4z"/>
			<path id="Path_698" class="st6" d="M719.1,197.3v29.9l-15-15L719.1,197.3z"/>
			<path id="Path_699" class="st6" d="M704.1,146.2v29.9l-15-15L704.1,146.2z"/>
			<path id="Path_700" class="st6" d="M719.1,129.5v29.9l-15-15L719.1,129.5z"/>
			<path id="Path_701" class="st5" d="M599.2,137.4l45,44.9l-45,44.9V137.4z"/>
			<path id="Path_702" class="st6" d="M629.2,192.8v-29.9l15,15L629.2,192.8z"/>
			<path id="Path_703" class="st6" d="M599.2,192.8v-29.9l15,15L599.2,192.8z"/>
			<path id="Path_704" class="st6" d="M614.2,176.1v-29.9l15,15L614.2,176.1z"/>
			<path id="Path_705" class="st6" d="M599.2,159.4v-29.9l15,15L599.2,159.4z"/>
			<path id="Path_706" class="st6" d="M614.2,212.3v-29.9l15,15L614.2,212.3z"/>
			<path id="Path_707" class="st6" d="M599.2,227.3v-29.9l15,15L599.2,227.3z"/>
			<path id="Path_708" class="st5" d="M719.1,99.9l-45-44.9l45-44.9V99.9z"/>
			<path id="Path_709" class="st6" d="M689.1,44.6v29.9l-15-15L689.1,44.6z"/>
			<path id="Path_710" class="st6" d="M719.1,44.6v29.9l-15-15L719.1,44.6z"/>
			<path id="Path_711" class="st6" d="M704.1,61.3v29.9l-15-15L704.1,61.3z"/>
			<path id="Path_712" class="st6" d="M719.1,78.1V108l-15-15L719.1,78.1z"/>
			<path id="Path_713" class="st6" d="M704.1,25V55l-15-15L704.1,25z"/>
			<path id="Path_714" class="st6" d="M719.1,10.1V40l-15-15L719.1,10.1z"/>
			<path id="Path_715" class="st5" d="M599.2,10.1l45,44.9l-45,44.9V10.1z"/>
			<path id="Path_716" class="st6" d="M629.2,74.6V44.6l15,15L629.2,74.6z"/>
			<path id="Path_717" class="st6" d="M599.2,74.6V44.6l15,15L599.2,74.6z"/>
			<path id="Path_718" class="st6" d="M614.2,55V25l15,15L614.2,55z"/>
			<path id="Path_719" class="st6" d="M599.2,40V10.1l15,15L599.2,40z"/>
			<path id="Path_720" class="st6" d="M614.2,91.3V61.3l15,15L614.2,91.3z"/>
			<path id="Path_721" class="st6" d="M599.2,108V78.1l15,15L599.2,108z"/>
			<path id="Path_722" class="st6" d="M646.5,156.2h25.3l-12.7,13.9L646.5,156.2z M631.6,139.9h55.2l-8.2,9.1h-38.7L631.6,139.9z
				 M615.1,121.8h88.1l-9.8,10.7h-68.5L615.1,121.8z M623.3,105.3H695l8.4,9.2h-88.5L623.3,105.3z M639.2,87.8h39.9l9.3,10.2H630
				L639.2,87.8z M659.2,65.9l13.3,14.6h-26.5L659.2,65.9z M706.6,0l-11.9,13h-63.4l6.7,7.3h50l-11.5,12.6h-27.1l6.7,7.3H670
				l-6.9,7.6l-3.9,4.3L611.7,0h-12.5l53.7,59l-53.7,59l53.7,59l-53.7,59h12.5l12.5-13.7h62l-6.7-7.3h-48.6l11.5-12.6H668l-6.7-7.3
				h-12.4l6.5-7.2l3.7-4.1l47.5,52.2h12.5l-53.7-59l53.7-59l-53.7-59l53.7-59H706.6z"/>
			<path id="Path_723" class="st5" d="M839.1,227.3l-45-44.9l45-44.9L839.1,227.3z"/>
			<path id="Path_724" class="st6" d="M809.1,162.9v29.9l-15-15L809.1,162.9z"/>
			<path id="Path_725" class="st6" d="M839.1,162.9v29.9l-15-15L839.1,162.9z"/>
			<path id="Path_726" class="st6" d="M824.1,182.4v29.9l-15-15L824.1,182.4z"/>
			<path id="Path_727" class="st6" d="M839.1,197.3v29.9l-15-15L839.1,197.3z"/>
			<path id="Path_728" class="st6" d="M824.1,146.2v29.9l-15-15L824.1,146.2z"/>
			<path id="Path_729" class="st6" d="M839.1,129.5v29.9l-15-15L839.1,129.5z"/>
			<path id="Path_730" class="st5" d="M719.1,137.4l45,44.9l-45,44.9V137.4z"/>
			<path id="Path_731" class="st6" d="M749.1,192.8v-29.9l15,15L749.1,192.8z"/>
			<path id="Path_732" class="st6" d="M719.1,192.8v-29.9l15,15L719.1,192.8z"/>
			<path id="Path_733" class="st6" d="M734.1,176.1v-29.9l15,15L734.1,176.1z"/>
			<path id="Path_734" class="st6" d="M719.1,159.4v-29.9l15,15L719.1,159.4z"/>
			<path id="Path_735" class="st6" d="M734.1,212.3v-29.9l15,15L734.1,212.3z"/>
			<path id="Path_736" class="st6" d="M719.1,227.3v-29.9l15,15L719.1,227.3z"/>
			<path id="Path_737" class="st5" d="M839.1,99.9l-45-44.9l45-44.9V99.9z"/>
			<path id="Path_738" class="st6" d="M809.1,44.6v29.9l-15-15L809.1,44.6z"/>
			<path id="Path_739" class="st6" d="M839.1,44.6v29.9l-15-15L839.1,44.6z"/>
			<path id="Path_740" class="st6" d="M824.1,61.3v29.9l-15-15L824.1,61.3z"/>
			<path id="Path_741" class="st6" d="M839.1,78.1V108l-15-15L839.1,78.1z"/>
			<path id="Path_742" class="st6" d="M824.1,25V55l-15-15L824.1,25z"/>
			<path id="Path_743" class="st6" d="M839.1,10.1V40l-15-15L839.1,10.1z"/>
			<path id="Path_744" class="st5" d="M719.1,10.1l45,44.9l-45,44.9V10.1z"/>
			<path id="Path_745" class="st6" d="M749.1,74.6V44.6l15,15L749.1,74.6z"/>
			<path id="Path_746" class="st6" d="M719.1,74.6V44.6l15,15L719.1,74.6z"/>
			<path id="Path_747" class="st6" d="M734.1,55V25l15,15L734.1,55z"/>
			<path id="Path_748" class="st6" d="M719.1,40V10.1l15,15L719.1,40z"/>
			<path id="Path_749" class="st6" d="M734.1,91.3V61.3l15,15L734.1,91.3z"/>
			<path id="Path_750" class="st6" d="M719.1,108V78.1l15,15L719.1,108z"/>
			<path id="Path_751" class="st6" d="M766.4,156.2h25.3l-12.7,13.9L766.4,156.2z M751.5,139.9h55.2l-8.2,9.1h-38.7L751.5,139.9z
				 M735,121.8h88.1l-9.8,10.7h-68.5L735,121.8z M743.2,105.3H815l8.4,9.2h-88.5L743.2,105.3z M759.2,87.8H799l9.3,10.2h-58.4
				L759.2,87.8z M779.1,65.9l13.3,14.6h-26.5L779.1,65.9z M826.6,0l-11.9,13h-63.4l6.7,7.3h50l-11.5,12.6h-27.1l6.7,7.3h13.8
				l-6.9,7.6l-3.9,4.3L731.6,0h-12.5l53.7,59l-53.7,59l53.7,59l-53.7,59h12.5l12.5-13.7h62l-6.7-7.3h-48.6l11.5-12.6h25.7l-6.7-7.3
				h-12.4l6.5-7.2l3.7-4.1l47.5,52.2h12.5l-53.7-59l53.7-59l-53.7-59l53.7-59H826.6z"/>
			<path id="Path_752" class="st5" d="M959,227.3l-45-44.9l45-44.9L959,227.3z"/>
			<path id="Path_753" class="st6" d="M929,162.9v29.9l-15-15L929,162.9z"/>
			<path id="Path_754" class="st6" d="M959,162.9v29.9l-15-15L959,162.9z"/>
			<path id="Path_755" class="st6" d="M944,182.4v29.9l-15-15L944,182.4z"/>
			<path id="Path_756" class="st6" d="M959,197.3v29.9l-15-15L959,197.3z"/>
			<path id="Path_757" class="st6" d="M944,146.2v29.9l-15-15L944,146.2z"/>
			<path id="Path_758" class="st6" d="M959,129.5v29.9l-15-15L959,129.5z"/>
			<path id="Path_759" class="st5" d="M839.1,137.4l45,44.9l-45,44.9V137.4z"/>
			<path id="Path_760" class="st6" d="M869,192.8v-29.9l15,15L869,192.8z"/>
			<path id="Path_761" class="st6" d="M839.1,192.8v-29.9l15,15L839.1,192.8z"/>
			<path id="Path_762" class="st6" d="M854.1,176.1v-29.9l15,15L854.1,176.1z"/>
			<path id="Path_763" class="st6" d="M839.1,159.4v-29.9l15,15L839.1,159.4z"/>
			<path id="Path_764" class="st6" d="M854.1,212.3v-29.9l15,15L854.1,212.3z"/>
			<path id="Path_765" class="st6" d="M839.1,227.3v-29.9l15,15L839.1,227.3z"/>
			<path id="Path_766" class="st5" d="M959,99.9L914,55l45-44.9V99.9z"/>
			<path id="Path_767" class="st6" d="M929,44.6v29.9l-15-15L929,44.6z"/>
			<path id="Path_768" class="st6" d="M959,44.6v29.9l-15-15L959,44.6z"/>
			<path id="Path_769" class="st6" d="M944,61.3v29.9l-15-15L944,61.3z"/>
			<path id="Path_770" class="st6" d="M959,78.1V108l-15-15L959,78.1z"/>
			<path id="Path_771" class="st6" d="M944,25V55l-15-15L944,25z"/>
			<path id="Path_772" class="st6" d="M959,10.1V40l-15-15L959,10.1z"/>
			<path id="Path_773" class="st5" d="M839.1,10.1L884,55l-45,44.9V10.1z"/>
			<path id="Path_774" class="st6" d="M869,74.6V44.6l15,15L869,74.6z"/>
			<path id="Path_775" class="st6" d="M839.1,74.6V44.6l15,15L839.1,74.6z"/>
			<path id="Path_776" class="st6" d="M854.1,55V25l15,15L854.1,55z"/>
			<path id="Path_777" class="st6" d="M839.1,40V10.1l15,15L839.1,40z"/>
			<path id="Path_778" class="st6" d="M854.1,91.3V61.3l15,15L854.1,91.3z"/>
			<path id="Path_779" class="st6" d="M839.1,108V78.1l15,15L839.1,108z"/>
			<path id="Path_780" class="st6" d="M886.4,156.2h25.3L899,170.1L886.4,156.2z M871.4,139.9h55.2l-8.2,9.1h-38.7L871.4,139.9z
				 M855,121.8h88.1l-9.8,10.7h-68.5L855,121.8z M863.2,105.3h71.8l8.4,9.2h-88.5L863.2,105.3z M879.1,87.8H919l9.3,10.2h-58.4
				L879.1,87.8z M899,65.9l13.3,14.6h-26.5L899,65.9z M946.5,0l-11.9,13h-63.4l6.7,7.3h50l-11.5,12.6h-27.1l6.7,7.3h13.8l-6.9,7.6
				l-3.9,4.3L851.5,0h-12.5l53.7,59l-53.7,59l53.7,59l-53.7,59h12.5l12.5-13.7h62l-6.7-7.3h-48.6l11.5-12.6h25.7l-6.7-7.3h-12.4
				l6.5-7.2l3.7-4.1l47.5,52.2H959l-53.7-59l53.7-59l-53.7-59L959,0H946.5z"/>
			<path id="Path_781" class="st5" d="M1078.9,227.3l-45-44.9l45-44.9V227.3z"/>
			<path id="Path_782" class="st6" d="M1049,162.9v29.9l-15-15L1049,162.9z"/>
			<path id="Path_783" class="st6" d="M1078.9,162.9v29.9l-15-15L1078.9,162.9z"/>
			<path id="Path_784" class="st6" d="M1063.9,182.4v29.9l-15-15L1063.9,182.4z"/>
			<path id="Path_785" class="st6" d="M1078.9,197.3v29.9l-15-15L1078.9,197.3z"/>
			<path id="Path_786" class="st6" d="M1063.9,146.2v29.9l-15-15L1063.9,146.2z"/>
			<path id="Path_787" class="st6" d="M1078.9,129.5v29.9l-15-15L1078.9,129.5z"/>
			<path id="Path_788" class="st5" d="M959,137.4l45,44.9l-45,44.9V137.4z"/>
			<path id="Path_789" class="st6" d="M989,192.8v-29.9l15,15L989,192.8z"/>
			<path id="Path_790" class="st6" d="M959,192.8v-29.9l15,15L959,192.8z"/>
			<path id="Path_791" class="st6" d="M974,176.1v-29.9l15,15L974,176.1z"/>
			<path id="Path_792" class="st6" d="M959,159.4v-29.9l15,15L959,159.4z"/>
			<path id="Path_793" class="st6" d="M974,212.3v-29.9l15,15L974,212.3z"/>
			<path id="Path_794" class="st6" d="M959,227.3v-29.9l15,15L959,227.3z"/>
			<path id="Path_795" class="st5" d="M1078.9,99.9L1034,55l45-44.9V99.9z"/>
			<path id="Path_796" class="st6" d="M1049,44.6v29.9l-15-15L1049,44.6z"/>
			<path id="Path_797" class="st6" d="M1078.9,44.6v29.9l-15-15L1078.9,44.6z"/>
			<path id="Path_798" class="st6" d="M1063.9,61.3v29.9l-15-15L1063.9,61.3z"/>
			<path id="Path_799" class="st6" d="M1078.9,78.1V108l-15-15L1078.9,78.1z"/>
			<path id="Path_800" class="st6" d="M1063.9,25V55l-15-15L1063.9,25z"/>
			<path id="Path_801" class="st6" d="M1078.9,10.1V40l-15-15L1078.9,10.1z"/>
			<path id="Path_802" class="st5" d="M959,10.1l45,44.9l-45,44.9V10.1z"/>
			<path id="Path_803" class="st6" d="M989,74.6V44.6l15,15L989,74.6z"/>
			<path id="Path_804" class="st6" d="M959,74.6V44.6l15,15L959,74.6z"/>
			<path id="Path_805" class="st6" d="M974,55V25l15,15L974,55z"/>
			<path id="Path_806" class="st6" d="M959,40V10.1l15,15L959,40z"/>
			<path id="Path_807" class="st6" d="M974,91.3V61.3l15,15L974,91.3z"/>
			<path id="Path_808" class="st6" d="M959,108V78.1l15,15L959,108z"/>
			<path id="Path_809" class="st6" d="M1006.3,156.2h25.3l-12.7,13.9L1006.3,156.2z M991.4,139.9h55.2l-8.2,9.1h-38.7L991.4,139.9z
				 M974.9,121.8h88.1l-9.8,10.7h-68.5L974.9,121.8z M983.1,105.3h71.8l8.4,9.2h-88.5L983.1,105.3z M999,87.8h39.9l9.3,10.2h-58.4
				L999,87.8z M1019,65.9l13.3,14.6h-26.5L1019,65.9z M1066.5,0l-11.9,13h-63.4l6.7,7.3h50l-11.5,12.6h-27.1l6.7,7.3h13.8l-6.9,7.6
				l-3.9,4.3L971.5,0H959l53.7,59L959,118l53.7,59L959,236h12.5l12.5-13.7h62l-6.7-7.3h-48.6l11.5-12.6h25.7l-6.7-7.3h-12.4l6.5-7.2
				l3.7-4.1l47.5,52.2h12.5l-53.7-59l53.7-59l-53.7-59l53.7-59H1066.5z"/>
			<path id="Path_810" class="st5" d="M1198.9,227.3l-45-44.9l45-44.9L1198.9,227.3z"/>
			<path id="Path_811" class="st6" d="M1168.9,162.9v29.9l-15-15L1168.9,162.9z"/>
			<path id="Path_812" class="st6" d="M1198.9,162.9v29.9l-15-15L1198.9,162.9z"/>
			<path id="Path_813" class="st6" d="M1183.9,182.4v29.9l-15-15L1183.9,182.4z"/>
			<path id="Path_814" class="st6" d="M1198.9,197.3v29.9l-15-15L1198.9,197.3z"/>
			<path id="Path_815" class="st6" d="M1183.9,146.2v29.9l-15-15L1183.9,146.2z"/>
			<path id="Path_816" class="st6" d="M1198.9,129.5v29.9l-15-15L1198.9,129.5z"/>
			<path id="Path_817" class="st5" d="M1078.9,137.4l45,44.9l-45,44.9V137.4z"/>
			<path id="Path_818" class="st6" d="M1108.9,192.8v-29.9l15,15L1108.9,192.8z"/>
			<path id="Path_819" class="st6" d="M1078.9,192.8v-29.9l15,15L1078.9,192.8z"/>
			<path id="Path_820" class="st6" d="M1093.9,176.1v-29.9l15,15L1093.9,176.1z"/>
			<path id="Path_821" class="st6" d="M1078.9,159.4v-29.9l15,15L1078.9,159.4z"/>
			<path id="Path_822" class="st6" d="M1093.9,212.3v-29.9l15,15L1093.9,212.3z"/>
			<path id="Path_823" class="st6" d="M1078.9,227.3v-29.9l15,15L1078.9,227.3z"/>
			<path id="Path_824" class="st5" d="M1198.9,99.9l-45-44.9l45-44.9V99.9z"/>
			<path id="Path_825" class="st6" d="M1168.9,44.6v29.9l-15-15L1168.9,44.6z"/>
			<path id="Path_826" class="st6" d="M1198.9,44.6v29.9l-15-15L1198.9,44.6z"/>
			<path id="Path_827" class="st6" d="M1183.9,61.3v29.9l-15-15L1183.9,61.3z"/>
			<path id="Path_828" class="st6" d="M1198.9,78.1V108l-15-15L1198.9,78.1z"/>
			<path id="Path_829" class="st6" d="M1183.9,25V55l-15-15L1183.9,25z"/>
			<path id="Path_830" class="st6" d="M1198.9,10.1V40l-15-15L1198.9,10.1z"/>
			<path id="Path_831" class="st5" d="M1078.9,10.1l45,44.9l-45,44.9V10.1z"/>
			<path id="Path_832" class="st6" d="M1108.9,74.6V44.6l15,15L1108.9,74.6z"/>
			<path id="Path_833" class="st6" d="M1078.9,74.6V44.6l15,15L1078.9,74.6z"/>
			<path id="Path_834" class="st6" d="M1093.9,55V25l15,15L1093.9,55z"/>
			<path id="Path_835" class="st6" d="M1078.9,40V10.1l15,15L1078.9,40z"/>
			<path id="Path_836" class="st6" d="M1093.9,91.3V61.3l15,15L1093.9,91.3z"/>
			<path id="Path_837" class="st6" d="M1078.9,108V78.1l15,15L1078.9,108z"/>
			<path id="Path_838" class="st6" d="M1126.2,156.2h25.3l-12.7,13.9L1126.2,156.2z M1111.3,139.9h55.2l-8.2,9.1h-38.7L1111.3,139.9
				z M1094.9,121.8h88.1l-9.8,10.7h-68.5L1094.9,121.8z M1103,105.3h71.8l8.4,9.2h-88.5L1103,105.3z M1119,87.8h39.9l9.3,10.2h-58.4
				L1119,87.8z M1138.9,65.9l13.3,14.6h-26.5L1138.9,65.9z M1186.4,0l-11.9,13h-63.4l6.7,7.3h50l-11.5,12.6h-27.1l6.7,7.3h13.8
				l-6.9,7.6l-3.9,4.3L1091.4,0h-12.5l53.7,59l-53.7,59l53.7,59l-53.7,59h12.5l12.5-13.7h62l-6.7-7.3h-48.6l11.5-12.6h25.7l-6.7-7.3
				h-12.4l6.5-7.2l3.7-4.1l47.5,52.2h12.5l-53.7-59l53.7-59l-53.7-59l53.7-59H1186.4z"/>
			<path id="Path_839" class="st5" d="M1318.8,227.3l-45-44.9l45-44.9L1318.8,227.3z"/>
			<path id="Path_840" class="st6" d="M1288.8,162.9v29.9l-15-15L1288.8,162.9z"/>
			<path id="Path_841" class="st6" d="M1318.8,162.9v29.9l-15-15L1318.8,162.9z"/>
			<path id="Path_842" class="st6" d="M1303.8,182.4v29.9l-15-15L1303.8,182.4z"/>
			<path id="Path_843" class="st6" d="M1318.8,197.3v29.9l-15-15L1318.8,197.3z"/>
			<path id="Path_844" class="st6" d="M1303.8,146.2v29.9l-15-15L1303.8,146.2z"/>
			<path id="Path_845" class="st6" d="M1318.8,129.5v29.9l-15-15L1318.8,129.5z"/>
			<path id="Path_846" class="st5" d="M1198.9,137.4l45,44.9l-45,44.9L1198.9,137.4z"/>
			<path id="Path_847" class="st6" d="M1228.9,192.8v-29.9l15,15L1228.9,192.8z"/>
			<path id="Path_848" class="st6" d="M1198.9,192.8v-29.9l15,15L1198.9,192.8z"/>
			<path id="Path_849" class="st6" d="M1213.9,176.1v-29.9l15,15L1213.9,176.1z"/>
			<path id="Path_850" class="st6" d="M1198.9,159.4v-29.9l15,15L1198.9,159.4z"/>
			<path id="Path_851" class="st6" d="M1213.9,212.3v-29.9l15,15L1213.9,212.3z"/>
			<path id="Path_852" class="st6" d="M1198.9,227.3v-29.9l15,15L1198.9,227.3z"/>
			<path id="Path_853" class="st5" d="M1318.8,99.9l-45-44.9l45-44.9V99.9z"/>
			<path id="Path_854" class="st6" d="M1288.8,44.6v29.9l-15-15L1288.8,44.6z"/>
			<path id="Path_855" class="st6" d="M1318.8,44.6v29.9l-15-15L1318.8,44.6z"/>
			<path id="Path_856" class="st6" d="M1303.8,61.3v29.9l-15-15L1303.8,61.3z"/>
			<path id="Path_857" class="st6" d="M1318.8,78.1V108l-15-15L1318.8,78.1z"/>
			<path id="Path_858" class="st6" d="M1303.8,25V55l-15-15L1303.8,25z"/>
			<path id="Path_859" class="st6" d="M1318.8,10.1V40l-15-15L1318.8,10.1z"/>
			<path id="Path_860" class="st5" d="M1198.9,10.1l45,44.9l-45,44.9V10.1z"/>
			<path id="Path_861" class="st6" d="M1228.9,74.6V44.6l15,15L1228.9,74.6z"/>
			<path id="Path_862" class="st6" d="M1198.9,74.6V44.6l15,15L1198.9,74.6z"/>
			<path id="Path_863" class="st6" d="M1213.9,55V25l15,15L1213.9,55z"/>
			<path id="Path_864" class="st6" d="M1198.9,40V10.1l15,15L1198.9,40z"/>
			<path id="Path_865" class="st6" d="M1213.9,91.3V61.3l15,15L1213.9,91.3z"/>
			<path id="Path_866" class="st6" d="M1198.9,108V78.1l15,15L1198.9,108z"/>
			<path id="Path_867" class="st6" d="M1246.2,156.2h25.3l-12.7,13.9L1246.2,156.2z M1231.3,139.9h55.2l-8.2,9.1h-38.7L1231.3,139.9
				z M1214.8,121.8h88.1l-9.8,10.7h-68.5L1214.8,121.8z M1223,105.3h71.8l8.4,9.2h-88.5L1223,105.3z M1238.9,87.8h39.9l9.3,10.2
				h-58.4L1238.9,87.8z M1258.8,65.9l13.3,14.6h-26.5L1258.8,65.9z M1306.3,0l-11.9,13h-63.4l6.7,7.3h50l-11.5,12.6h-27.1l6.7,7.3
				h13.8l-6.9,7.6l-3.9,4.3L1211.4,0h-12.5l53.7,59l-53.7,59l53.7,59l-53.7,59h12.5l12.5-13.7h62l-6.7-7.3h-48.6l11.5-12.6h25.7
				l-6.7-7.3h-12.4l6.5-7.2l3.7-4.1l47.5,52.2h12.5l-53.7-59l53.7-59l-53.7-59l53.7-59H1306.3z"/>
			<path id="Path_868" class="st5" d="M1438.8,227.3l-45-44.9l45-44.9V227.3z"/>
			<path id="Path_869" class="st6" d="M1408.8,162.9v29.9l-15-15L1408.8,162.9z"/>
			<path id="Path_870" class="st6" d="M1438.8,162.9v29.9l-15-15L1438.8,162.9z"/>
			<path id="Path_871" class="st6" d="M1423.8,182.4v29.9l-15-15L1423.8,182.4z"/>
			<path id="Path_872" class="st6" d="M1438.8,197.3v29.9l-15-15L1438.8,197.3z"/>
			<path id="Path_873" class="st6" d="M1423.8,146.2v29.9l-15-15L1423.8,146.2z"/>
			<path id="Path_874" class="st6" d="M1438.8,129.5v29.9l-15-15L1438.8,129.5z"/>
			<path id="Path_875" class="st5" d="M1318.8,137.4l45,44.9l-45,44.9V137.4z"/>
			<path id="Path_876" class="st6" d="M1348.8,192.8v-29.9l15,15L1348.8,192.8z"/>
			<path id="Path_877" class="st6" d="M1318.8,192.8v-29.9l15,15L1318.8,192.8z"/>
			<path id="Path_878" class="st6" d="M1333.8,176.1v-29.9l15,15L1333.8,176.1z"/>
			<path id="Path_879" class="st6" d="M1318.8,159.4v-29.9l15,15L1318.8,159.4z"/>
			<path id="Path_880" class="st6" d="M1333.8,212.3v-29.9l15,15L1333.8,212.3z"/>
			<path id="Path_881" class="st6" d="M1318.8,227.3v-29.9l15,15L1318.8,227.3z"/>
			<path id="Path_882" class="st5" d="M1438.8,99.9l-45-44.9l45-44.9V99.9z"/>
			<path id="Path_883" class="st6" d="M1408.8,44.6v29.9l-15-15L1408.8,44.6z"/>
			<path id="Path_884" class="st6" d="M1438.8,44.6v29.9l-15-15L1438.8,44.6z"/>
			<path id="Path_885" class="st6" d="M1423.8,61.3v29.9l-15-15L1423.8,61.3z"/>
			<path id="Path_886" class="st6" d="M1438.8,78.1V108l-15-15L1438.8,78.1z"/>
			<path id="Path_887" class="st6" d="M1423.8,25V55l-15-15L1423.8,25z"/>
			<path id="Path_888" class="st6" d="M1438.8,10.1V40l-15-15L1438.8,10.1z"/>
			<path id="Path_889" class="st5" d="M1318.8,10.1l45,44.9l-45,44.9V10.1z"/>
			<path id="Path_890" class="st6" d="M1348.8,74.6V44.6l15,15L1348.8,74.6z"/>
			<path id="Path_891" class="st6" d="M1318.8,74.6V44.6l15,15L1318.8,74.6z"/>
			<path id="Path_892" class="st6" d="M1333.8,55V25l15,15L1333.8,55z"/>
			<path id="Path_893" class="st6" d="M1318.8,40V10.1l15,15L1318.8,40z"/>
			<path id="Path_894" class="st6" d="M1333.8,91.3V61.3l15,15L1333.8,91.3z"/>
			<path id="Path_895" class="st6" d="M1318.8,108V78.1l15,15L1318.8,108z"/>
			<path id="Path_896" class="st6" d="M1366.1,156.2h25.3l-12.7,13.9L1366.1,156.2z M1351.2,139.9h55.2l-8.2,9h-38.7L1351.2,139.9z
				 M1334.7,121.8h88.1l-9.8,10.7h-68.5L1334.7,121.8z M1342.9,105.3h71.8l8.4,9.2h-88.5L1342.9,105.3z M1358.8,87.8h39.9l9.3,10.2
				h-58.4L1358.8,87.8z M1378.8,65.9l13.3,14.6h-26.5L1378.8,65.9z M1426.3,0l-11.9,13H1351l6.7,7.3h50l-11.5,12.6h-27.1l6.7,7.3
				h13.8l-6.9,7.6l-3.9,4.3L1331.3,0h-12.5l53.7,59l-53.7,59l53.7,59l-53.7,59h12.5l12.5-13.7h62l-6.7-7.3h-48.6l11.5-12.6h25.7
				l-6.7-7.3h-12.4l6.5-7.2l3.7-4.1l47.5,52.2h12.5l-53.7-59l53.7-59L1385,59l53.7-59H1426.3z"/>
			<path id="Path_897" class="st5" d="M1558.7,227.3l-45-44.9l45-44.9V227.3z"/>
			<path id="Path_898" class="st6" d="M1528.7,162.9v29.9l-15-15L1528.7,162.9z"/>
			<path id="Path_899" class="st6" d="M1558.7,162.9v29.9l-15-15L1558.7,162.9z"/>
			<path id="Path_900" class="st6" d="M1543.7,182.4v29.9l-15-15L1543.7,182.4z"/>
			<path id="Path_901" class="st6" d="M1558.7,197.3v29.9l-15-15L1558.7,197.3z"/>
			<path id="Path_902" class="st6" d="M1543.7,146.2v29.9l-15-15L1543.7,146.2z"/>
			<path id="Path_903" class="st6" d="M1558.7,129.5v29.9l-15-15L1558.7,129.5z"/>
			<path id="Path_904" class="st5" d="M1438.8,137.4l45,44.9l-45,44.9V137.4z"/>
			<path id="Path_905" class="st6" d="M1468.7,192.8v-29.9l15,15L1468.7,192.8z"/>
			<path id="Path_906" class="st6" d="M1438.8,192.8v-29.9l15,15L1438.8,192.8z"/>
			<path id="Path_907" class="st6" d="M1453.7,176.1v-29.9l15,15L1453.7,176.1z"/>
			<path id="Path_908" class="st6" d="M1438.8,159.4v-29.9l15,15L1438.8,159.4z"/>
			<path id="Path_909" class="st6" d="M1453.7,212.3v-29.9l15,15L1453.7,212.3z"/>
			<path id="Path_910" class="st6" d="M1438.8,227.3v-29.9l15,15L1438.8,227.3z"/>
			<path id="Path_911" class="st5" d="M1558.7,99.9l-45-44.9l45-44.9V99.9z"/>
			<path id="Path_912" class="st6" d="M1528.7,44.6v29.9l-15-15L1528.7,44.6z"/>
			<path id="Path_913" class="st6" d="M1558.7,44.6v29.9l-15-15L1558.7,44.6z"/>
			<path id="Path_914" class="st6" d="M1543.7,61.3v29.9l-15-15L1543.7,61.3z"/>
			<path id="Path_915" class="st6" d="M1558.7,78.1V108l-15-15L1558.7,78.1z"/>
			<path id="Path_916" class="st6" d="M1543.7,25V55l-15-15L1543.7,25z"/>
			<path id="Path_917" class="st6" d="M1558.7,10.1V40l-15-15L1558.7,10.1z"/>
			<path id="Path_918" class="st5" d="M1438.8,10.1l45,44.9l-45,44.9V10.1z"/>
			<path id="Path_919" class="st6" d="M1468.7,74.6V44.6l15,15L1468.7,74.6z"/>
			<path id="Path_920" class="st6" d="M1438.8,74.6V44.6l15,15L1438.8,74.6z"/>
			<path id="Path_921" class="st6" d="M1453.7,55V25l15,15L1453.7,55z"/>
			<path id="Path_922" class="st6" d="M1438.8,40V10.1l15,15L1438.8,40z"/>
			<path id="Path_923" class="st6" d="M1453.7,91.3V61.3l15,15L1453.7,91.3z"/>
			<path id="Path_924" class="st6" d="M1438.8,108V78.1l15,15L1438.8,108z"/>
			<path id="Path_925" class="st6" d="M1486,156.2h25.3l-12.7,13.9L1486,156.2z M1471.1,139.9h55.2l-8.2,9.1h-38.7L1471.1,139.9z
				 M1454.7,121.8h88.1l-9.8,10.7h-68.5L1454.7,121.8z M1462.8,105.3h71.8l8.4,9.2h-88.5L1462.8,105.3z M1478.8,87.8h39.9l9.3,10.2
				h-58.4L1478.8,87.8z M1498.7,65.9l13.3,14.6h-26.5L1498.7,65.9z M1546.2,0l-11.9,13H1471l6.7,7.3h50l-11.5,12.6h-27.1l6.7,7.3
				h13.8l-6.9,7.6l-3.9,4.3L1451.2,0h-12.5l53.7,59l-53.7,59l53.7,59l-53.7,59h12.5l12.5-13.7h62l-6.7-7.3h-48.6l11.5-12.6h25.7
				l-6.7-7.3h-12.4l6.5-7.2l3.7-4.1l47.5,52.2h12.5l-53.7-59l53.7-59L1505,59l53.7-59H1546.2z"/>
			<path id="Path_926" class="st5" d="M1678.6,227.3l-45-44.9l45-44.9V227.3z"/>
			<path id="Path_927" class="st6" d="M1648.6,162.9v29.9l-15-15L1648.6,162.9z"/>
			<path id="Path_928" class="st6" d="M1678.6,162.9v29.9l-15-15L1678.6,162.9z"/>
			<path id="Path_929" class="st6" d="M1663.6,182.4v29.9l-15-15L1663.6,182.4z"/>
			<path id="Path_930" class="st6" d="M1678.6,197.3v29.9l-15-15L1678.6,197.3z"/>
			<path id="Path_931" class="st6" d="M1663.6,146.2v29.9l-15-15L1663.6,146.2z"/>
			<path id="Path_932" class="st6" d="M1678.6,129.5v29.9l-15-15L1678.6,129.5z"/>
			<path id="Path_933" class="st5" d="M1558.7,137.4l45,44.9l-45,44.9V137.4z"/>
			<path id="Path_934" class="st6" d="M1588.7,192.8v-29.9l15,15L1588.7,192.8z"/>
			<path id="Path_935" class="st6" d="M1558.7,192.8v-29.9l15,15L1558.7,192.8z"/>
			<path id="Path_936" class="st6" d="M1573.7,176.1v-29.9l15,15L1573.7,176.1z"/>
			<path id="Path_937" class="st6" d="M1558.7,159.4v-29.9l15,15L1558.7,159.4z"/>
			<path id="Path_938" class="st6" d="M1573.7,212.3v-29.9l15,15L1573.7,212.3z"/>
			<path id="Path_939" class="st6" d="M1558.7,227.3v-29.9l15,15L1558.7,227.3z"/>
			<path id="Path_940" class="st5" d="M1678.6,99.9l-45-44.9l45-44.9V99.9z"/>
			<path id="Path_941" class="st6" d="M1648.6,44.6v29.9l-15-15L1648.6,44.6z"/>
			<path id="Path_942" class="st6" d="M1678.6,44.6v29.9l-15-15L1678.6,44.6z"/>
			<path id="Path_943" class="st6" d="M1663.6,61.3v29.9l-15-15L1663.6,61.3z"/>
			<path id="Path_944" class="st6" d="M1678.6,78.1V108l-15-15L1678.6,78.1z"/>
			<path id="Path_945" class="st6" d="M1663.6,25V55l-15-15L1663.6,25z"/>
			<path id="Path_946" class="st6" d="M1678.6,10.1V40l-15-15L1678.6,10.1z"/>
			<path id="Path_947" class="st5" d="M1558.7,10.1l45,44.9l-45,44.9V10.1z"/>
			<path id="Path_948" class="st6" d="M1588.7,74.6V44.6l15,15L1588.7,74.6z"/>
			<path id="Path_949" class="st6" d="M1558.7,74.6V44.6l15,15L1558.7,74.6z"/>
			<path id="Path_950" class="st6" d="M1573.7,55V25l15,15L1573.7,55z"/>
			<path id="Path_951" class="st6" d="M1558.7,40V10.1l15,15L1558.7,40z"/>
			<path id="Path_952" class="st6" d="M1573.7,91.3V61.3l15,15L1573.7,91.3z"/>
			<path id="Path_953" class="st6" d="M1558.7,108V78.1l15,15L1558.7,108z"/>
			<path id="Path_954" class="st6" d="M1606,156.2h25.3l-12.7,13.9L1606,156.2z M1591.1,139.9h55.2l-8.2,9.1h-38.7L1591.1,139.9z
				 M1574.6,121.8h88.1l-9.8,10.7h-68.5L1574.6,121.8z M1582.8,105.3h71.8l8.4,9.2h-88.5L1582.8,105.3z M1598.7,87.8h39.9l9.3,10.2
				h-58.4L1598.7,87.8z M1618.7,65.9l13.3,14.6h-26.5L1618.7,65.9z M1666.1,0l-11.8,13h-63.4l6.7,7.3h50l-11.5,12.6H1609l6.7,7.3
				h13.8l-6.9,7.6l-3.9,4.3L1571.2,0h-12.5l53.7,59l-53.7,59l53.7,59l-53.7,59h12.5l12.5-13.7h62l-6.7-7.3h-48.6l11.5-12.6h25.7
				l-6.7-7.3h-12.4l6.5-7.2l3.7-4.1l47.5,52.2h12.5l-53.7-59l53.7-59l-53.7-59l53.7-59H1666.1z"/>
			<path id="Path_955" class="st5" d="M1798.6,227.3l-45-44.9l45-44.9V227.3z"/>
			<path id="Path_956" class="st6" d="M1768.6,162.9v29.9l-15-15L1768.6,162.9z"/>
			<path id="Path_957" class="st6" d="M1798.6,162.9v29.9l-15-15L1798.6,162.9z"/>
			<path id="Path_958" class="st6" d="M1783.6,182.4v29.9l-15-15L1783.6,182.4z"/>
			<path id="Path_959" class="st6" d="M1798.6,197.3v29.9l-15-15L1798.6,197.3z"/>
			<path id="Path_960" class="st6" d="M1783.6,146.2v29.9l-15-15L1783.6,146.2z"/>
			<path id="Path_961" class="st6" d="M1798.6,129.5v29.9l-15-15L1798.6,129.5z"/>
			<path id="Path_962" class="st5" d="M1678.6,137.4l45,44.9l-45,44.9L1678.6,137.4z"/>
			<path id="Path_963" class="st6" d="M1708.6,192.8v-29.9l15,15L1708.6,192.8z"/>
			<path id="Path_964" class="st6" d="M1678.6,192.8v-29.9l15,15L1678.6,192.8z"/>
			<path id="Path_965" class="st6" d="M1693.6,176.1v-29.9l15,15L1693.6,176.1z"/>
			<path id="Path_966" class="st6" d="M1678.6,159.4v-29.9l15,15L1678.6,159.4z"/>
			<path id="Path_967" class="st6" d="M1693.6,212.3v-29.9l15,15L1693.6,212.3z"/>
			<path id="Path_968" class="st6" d="M1678.6,227.3v-29.9l15,15L1678.6,227.3z"/>
			<path id="Path_969" class="st5" d="M1798.6,99.9l-45-44.9l45-44.9V99.9z"/>
			<path id="Path_970" class="st6" d="M1768.6,44.6v29.9l-15-15L1768.6,44.6z"/>
			<path id="Path_971" class="st6" d="M1798.6,44.6v29.9l-15-15L1798.6,44.6z"/>
			<path id="Path_972" class="st6" d="M1783.6,61.3v29.9l-15-15L1783.6,61.3z"/>
			<path id="Path_973" class="st6" d="M1798.6,78.1V108l-15-15L1798.6,78.1z"/>
			<path id="Path_974" class="st6" d="M1783.6,25V55l-15-15L1783.6,25z"/>
			<path id="Path_975" class="st6" d="M1798.6,10.1V40l-15-15L1798.6,10.1z"/>
			<path id="Path_976" class="st5" d="M1678.6,10.1l45,44.9l-45,44.9V10.1z"/>
			<path id="Path_977" class="st6" d="M1708.6,74.6V44.6l15,15L1708.6,74.6z"/>
			<path id="Path_978" class="st6" d="M1678.6,74.6V44.6l15,15L1678.6,74.6z"/>
			<path id="Path_979" class="st6" d="M1693.6,55V25l15,15L1693.6,55z"/>
			<path id="Path_980" class="st6" d="M1678.6,40V10.1l15,15L1678.6,40z"/>
			<path id="Path_981" class="st6" d="M1693.6,91.3V61.3l15,15L1693.6,91.3z"/>
			<path id="Path_982" class="st6" d="M1678.6,108V78.1l15,15L1678.6,108z"/>
			<path id="Path_983" class="st6" d="M1725.9,156.2h25.3l-12.7,13.9L1725.9,156.2z M1711,139.9h55.2l-8.2,9.1h-38.7L1711,139.9z
				 M1694.5,121.8h88.1l-9.8,10.7h-68.5L1694.5,121.8z M1702.7,105.3h71.8l8.4,9.2h-88.5L1702.7,105.3z M1718.7,87.8h39.9l9.3,10.2
				h-58.4L1718.7,87.8z M1738.6,65.9l13.3,14.6h-26.5L1738.6,65.9z M1786.1,0l-11.9,13h-63.4l6.7,7.3h50l-11.5,12.6H1729l6.7,7.3
				h13.8l-6.9,7.6l-3.9,4.3L1691.1,0h-12.5l53.7,59l-53.7,59l53.7,59l-53.7,59h12.5l12.5-13.7h62l-6.7-7.3h-48.6l11.5-12.6h25.7
				l-6.7-7.3h-12.4l6.5-7.2l3.7-4.1l47.5,52.2h12.5l-53.7-59l53.7-59l-53.7-59l53.7-59H1786.1z"/>
			<path id="Path_984" class="st5" d="M1873.5,182.4l45,44.9v-89.8L1873.5,182.4z"/>
			<path id="Path_985" class="st6" d="M1888.5,162.9v29.9l-15-15L1888.5,162.9z"/>
			<path id="Path_986" class="st6" d="M1903.5,177.9l15,15v-29.9L1903.5,177.9z"/>
			<path id="Path_987" class="st6" d="M1903.5,182.4v29.9l-15-15L1903.5,182.4z"/>
			<path id="Path_988" class="st6" d="M1903.5,212.3l15,15v-29.9L1903.5,212.3z"/>
			<path id="Path_989" class="st6" d="M1903.5,146.2v29.9l-15-15L1903.5,146.2z"/>
			<path id="Path_990" class="st6" d="M1903.5,144.5l15,15v-29.9L1903.5,144.5z"/>
			<path id="Path_991" class="st5" d="M1798.6,137.4l45,44.9l-45,44.9V137.4z"/>
			<path id="Path_992" class="st6" d="M1828.5,192.8v-29.9l15,15L1828.5,192.8z"/>
			<path id="Path_993" class="st6" d="M1798.6,192.8v-29.9l15,15L1798.6,192.8z"/>
			<path id="Path_994" class="st6" d="M1813.6,176.1v-29.9l15,15L1813.6,176.1z"/>
			<path id="Path_995" class="st6" d="M1798.6,159.4v-29.9l15,15L1798.6,159.4z"/>
			<path id="Path_996" class="st6" d="M1813.6,212.3v-29.9l15,15L1813.6,212.3z"/>
			<path id="Path_997" class="st6" d="M1798.6,227.3v-29.9l15,15L1798.6,227.3z"/>
			<path id="Path_998" class="st5" d="M1873.5,55l45,44.9V10.1L1873.5,55z"/>
			<path id="Path_999" class="st6" d="M1888.5,44.6v29.9l-15-15L1888.5,44.6z"/>
			<path id="Path_1000" class="st6" d="M1903.5,59.6l15,15V44.6L1903.5,59.6z"/>
			<path id="Path_1001" class="st6" d="M1903.5,61.3v29.9l-15-15L1903.5,61.3z"/>
			<path id="Path_1002" class="st6" d="M1903.5,93l15,15V78.1L1903.5,93z"/>
			<path id="Path_1003" class="st6" d="M1903.5,25V55l-15-15L1903.5,25z"/>
			<path id="Path_1004" class="st6" d="M1903.5,25l15,15V10.1L1903.5,25z"/>
			<path id="Path_1005" class="st5" d="M1798.6,10.1l45,44.9l-45,44.9V10.1z"/>
			<path id="Path_1006" class="st6" d="M1828.5,74.6V44.6l15,15L1828.5,74.6z"/>
			<path id="Path_1007" class="st6" d="M1798.6,74.6V44.6l15,15L1798.6,74.6z"/>
			<path id="Path_1008" class="st6" d="M1813.6,55V25l15,15L1813.6,55z"/>
			<path id="Path_1009" class="st6" d="M1798.6,40V10.1l15,15L1798.6,40z"/>
			<path id="Path_1010" class="st6" d="M1813.6,91.3V61.3l15,15L1813.6,91.3z"/>
			<path id="Path_1011" class="st6" d="M1798.6,108V78.1l15,15L1798.6,108z"/>
			<path id="Path_1012" class="st6" d="M1845.9,156.2h25.3l-12.7,13.9L1845.9,156.2z M1830.9,139.9h55.2l-8.2,9h-38.7L1830.9,139.9z
				 M1814.5,121.8h88.1l-9.8,10.7h-68.5L1814.5,121.8z M1822.7,105.3h71.8l8.4,9.2h-88.5L1822.7,105.3z M1838.6,87.8h39.9l9.3,10.2
				h-58.4L1838.6,87.8z M1858.5,65.9l13.3,14.6h-26.5L1858.5,65.9z M1906,0l-11.9,13h-63.4l6.7,7.3h50L1876,32.9h-27.1l6.7,7.3h13.8
				l-6.9,7.6l-3.9,4.3L1811,0h-12.5l53.7,59l-53.7,59l53.7,59l-53.7,59h12.5l12.5-13.7h62l-6.7-7.3h-48.6l11.5-12.6h25.7l-6.7-7.3
				h-12.4l6.5-7.2l3.7-4.1L1906,236h12.5l-53.7-59l53.7-59l-53.7-59l53.7-59H1906z"/>
		</g>
		<path id="Path_548" class="st7" d="M1919.5,1080V239.2h-17.3V222h-17.3v17.2h-17.3v16.8h-17.3v-16.8H1833V222h-17.3v17.2h-17.3
			v16.8h-17.3v-16.8h-17.3V222h-17.3v17.2h-17.3v16.8h-17.3v-16.8h-17.3V222h-17.3v17.2H1660v16.8h-17.3v-16.8h-17.3V222h-17.3v17.2
			h-17.3v16.8h-17.3v-16.8h-17.3V222h-17.3v17.2h-17.3v16.8h-17.3v-16.8H1487V222h-17.3v17.2h-17.3v16.8h-17.3v-16.8h-17.3V222
			h-17.3v17.2h-17.3v16.8h-17.3v-16.8h-17.3V222h-17.3v17.2H1314v16.8h-17.3v-16.8h-17.2V222h-17.3v17.2h-17.3v16.8h-17.3v-16.8
			h-17.3V222H1193v17.2h-17.3v16.8h-17.3v-16.8h-17.3V222h-17.3v17.2h-17.3v16.8h-17.3v-16.8h-17.3V222h-17.3v17.2h-17.3v16.8H1020
			v-16.8h-17.3V222h-17.3v17.2h-17.3v16.8h-17.3v-16.8h-17.3V222h-17.3v17.2h-17.3v16.8h-17.3v-16.8h-17.3V222H847v17.2h-17.3v16.8
			h-17.3v-16.8h-17.3V222h-17.3v17.2h-17.3v16.8h-17.3v-16.8h-17.3V222h-17.3v17.2h-17.3v16.8H674v-16.8h-17.3V222h-17.2v17.2h-17.3
			v16.8h-17.3v-16.8h-17.3V222h-17.3v17.2H553v16.8h-17.3v-16.8h-17.3V222h-17.3v17.2h-17.3v16.8h-17.3v-16.8h-17.3V222h-17.3v17.2
			h-17.3v16.8h-17.3v-16.8H380V222h-17.3v17.2h-17.3v16.8h-17.3v-16.8h-17.3V222h-17.3v17.2h-17.3v16.8h-17.3v-16.8h-17.3V222h-17.3
			v17.2H207v16.8h-17.3v-16.8h-17.3V222h-17.3v17.2h-17.3v16.8h-17.3v-16.8h-17.3V222H85.9v17.2H68.6v16.8H51.3v-16.8H34V222H16.7
			v17.2H-0.5V1080H1919.5z"/>
		<g id="Group_12" transform="translate(1551.491 969.427) rotate(90)">
			<path id="Path_1013" class="st8" d="M0,261.9l37.3-37.3L0,187.3V261.9z"/>
			<path id="Path_1014" class="st9" d="M24.9,237.1v-24.9l12.4,12.4L24.9,237.1z"/>
			<path id="Path_1015" class="st9" d="M0,237.1l12.4-12.4L0,212.2V237.1z"/>
			<path id="Path_1016" class="st9" d="M12.4,224.6v-24.9l12.4,12.4L12.4,224.6z"/>
			<path id="Path_1017" class="st9" d="M0,212.2l12.4-12.4L0,187.3V212.2z"/>
			<path id="Path_1018" class="st9" d="M12.4,249.5v-24.9l12.4,12.4L12.4,249.5z"/>
			<path id="Path_1019" class="st9" d="M0,261.9l12.4-12.4L0,237.1V261.9z"/>
			<path id="Path_1020" class="st8" d="M62.2,224.6l37.3,37.3v-74.6L62.2,224.6z"/>
			<path id="Path_1021" class="st9" d="M74.7,212.2v24.9l-12.4-12.4L74.7,212.2z"/>
			<path id="Path_1022" class="st9" d="M87.1,224.6l12.4,12.4v-24.9L87.1,224.6z"/>
			<path id="Path_1023" class="st9" d="M87.1,224.6v24.9l-12.4-12.4L87.1,224.6z"/>
			<path id="Path_1024" class="st9" d="M87.1,249.5l12.4,12.4v-24.9L87.1,249.5z"/>
			<path id="Path_1025" class="st9" d="M87.1,199.8v24.9l-12.4-12.4L87.1,199.8z"/>
			<path id="Path_1026" class="st9" d="M87.1,199.8l12.4,12.4v-24.9L87.1,199.8z"/>
			<path id="Path_1027" class="st8" d="M0,349.9l37.3-37.3L0,275.3V349.9z"/>
			<path id="Path_1028" class="st9" d="M24.9,325v-24.9l12.4,12.4L24.9,325z"/>
			<path id="Path_1029" class="st9" d="M0,325l12.4-12.4L0,300.2V325z"/>
			<path id="Path_1030" class="st9" d="M12.4,312.6v-24.9l12.4,12.4L12.4,312.6z"/>
			<path id="Path_1031" class="st9" d="M0,300.2l12.4-12.4L0,275.3V300.2z"/>
			<path id="Path_1032" class="st9" d="M12.4,337.5v-24.9L24.9,325L12.4,337.5z"/>
			<path id="Path_1033" class="st9" d="M0,349.9l12.4-12.4L0,325V349.9z"/>
			<path id="Path_1034" class="st8" d="M62.2,312.6l37.3,37.3v-74.6L62.2,312.6z"/>
			<path id="Path_1035" class="st9" d="M74.7,300.2V325l-12.4-12.4L74.7,300.2z"/>
			<path id="Path_1036" class="st9" d="M87.1,312.6L99.6,325v-24.9L87.1,312.6z"/>
			<path id="Path_1037" class="st9" d="M87.1,312.6v24.9L74.7,325L87.1,312.6z"/>
			<path id="Path_1038" class="st9" d="M87.1,337.5l12.4,12.4V325L87.1,337.5z"/>
			<path id="Path_1039" class="st9" d="M87.1,287.8v24.9l-12.4-12.4L87.1,287.8z"/>
			<path id="Path_1040" class="st9" d="M87.1,287.8l12.4,12.4v-24.9L87.1,287.8z"/>
			<path id="Path_1041" class="st9" d="M38.8,297.5h22l-11,11L38.8,297.5z M25.5,284.3H74l-7.7,7.7H33.2L25.5,284.3z M13.1,271.9
				h73.5l-7,6.9H20L13.1,271.9z M21.3,258.2h56.9l8.1,8.1H13.2L21.3,258.2z M33.7,245.8h32.1l6.8,6.8H26.9L33.7,245.8z M49.8,229.8
				l10.5,10.5h-21L49.8,229.8z M89.2,180.1l-10.3,10.3H27.4l5.5,5.5h40.4l-9.5,9.5H42.5L48,211h10.3l-5.4,5.4l-3.1,3.1l-39.4-39.4H0
				l44.6,44.5L0,269.2l44.6,44.5L0,358.2h10.4l9.8-9.8h52.6l-5.5-5.5H25.7l9.5-9.5h22.5l-5.5-5.5H40.8l5.7-5.7l3.3-3.3l39.4,39.4
				h10.4L55,313.7l44.6-44.5L55,224.6l44.6-44.5H89.2z"/>
			<path id="Path_1042" class="st8" d="M0,75.1l37.3-37.3L0,0.5V75.1z"/>
			<path id="Path_1043" class="st9" d="M24.9,50.2V25.4l12.4,12.4L24.9,50.2z"/>
			<path id="Path_1044" class="st9" d="M0,50.2l12.4-12.4L0,25.4V50.2z"/>
			<path id="Path_1045" class="st9" d="M12.4,37.8V12.9l12.4,12.4L12.4,37.8z"/>
			<path id="Path_1046" class="st9" d="M0,25.4l12.4-12.4L0,0.5V25.4z"/>
			<path id="Path_1047" class="st9" d="M12.4,62.6V37.8l12.4,12.4L12.4,62.6z"/>
			<path id="Path_1048" class="st9" d="M0,75.1l12.4-12.4L0,50.2V75.1z"/>
			<path id="Path_1049" class="st8" d="M62.2,37.8l37.3,37.3V0.5L62.2,37.8z"/>
			<path id="Path_1050" class="st9" d="M74.7,25.4v24.9L62.2,37.8L74.7,25.4z"/>
			<path id="Path_1051" class="st9" d="M87.1,37.8l12.4,12.4V25.4L87.1,37.8z"/>
			<path id="Path_1052" class="st9" d="M87.1,37.8v24.9L74.7,50.2L87.1,37.8z"/>
			<path id="Path_1053" class="st9" d="M87.1,62.6l12.4,12.4V50.2L87.1,62.6z"/>
			<path id="Path_1054" class="st9" d="M87.1,12.9v24.9L74.7,25.4L87.1,12.9z"/>
			<path id="Path_1055" class="st9" d="M87.1,12.9l12.4,12.4V0.5L87.1,12.9z"/>
			<path id="Path_1056" class="st8" d="M0,163l37.3-37.3L0,88.5V163z"/>
			<path id="Path_1057" class="st9" d="M24.9,138.2v-24.9l12.4,12.4L24.9,138.2z"/>
			<path id="Path_1058" class="st9" d="M0,138.2l12.4-12.4L0,113.3V138.2z"/>
			<path id="Path_1059" class="st9" d="M12.4,125.8v-24.9l12.4,12.4L12.4,125.8z"/>
			<path id="Path_1060" class="st9" d="M0,113.3l12.4-12.4L0,88.5V113.3z"/>
			<path id="Path_1061" class="st9" d="M12.4,150.6v-24.9l12.4,12.4L12.4,150.6z"/>
			<path id="Path_1062" class="st9" d="M0,163l12.4-12.4L0,138.2V163z"/>
			<path id="Path_1063" class="st8" d="M62.2,125.8L99.6,163V88.5L62.2,125.8z"/>
			<path id="Path_1064" class="st9" d="M74.7,113.3v24.9l-12.4-12.4L74.7,113.3z"/>
			<path id="Path_1065" class="st9" d="M87.1,125.8l12.4,12.4v-24.9L87.1,125.8z"/>
			<path id="Path_1066" class="st9" d="M87.1,125.8v24.9l-12.4-12.4L87.1,125.8z"/>
			<path id="Path_1067" class="st9" d="M87.1,150.6L99.6,163v-24.9L87.1,150.6z"/>
			<path id="Path_1068" class="st9" d="M87.1,100.9v24.9l-12.4-12.4L87.1,100.9z"/>
			<path id="Path_1069" class="st9" d="M87.1,100.9l12.4,12.4V88.5L87.1,100.9z"/>
			<path id="Path_1070" class="st9" d="M38.8,119.4h22l-11,11L38.8,119.4z M25.5,106.2H74l-7.7,7.7H33.2L25.5,106.2z M13.1,93.7
				h73.5l-7,6.9H20L13.1,93.7z M21.3,80.1h56.9l8.1,8.1H13.2L21.3,80.1z M33.7,67.7h32.1l6.8,6.8H26.9L33.7,67.7z M49.8,51.6
				l10.5,10.5h-21L49.8,51.6z M89.2,1.9L78.9,12.3H27.4l5.5,5.5h40.4l-9.5,9.5H42.5l5.5,5.5h10.3l-5.4,5.4l-3.1,3.1L10.4,1.9H0
				l44.6,44.5L0,91l44.6,44.5L0,180.1h10.4l9.8-9.8h52.6l-5.5-5.5H25.7l9.5-9.5h22.5l-5.5-5.5H40.8l5.7-5.7l3.3-3.3l39.4,39.4h10.4
				L55,135.6L99.6,91L55,46.5L99.6,1.9H89.2z"/>
		</g>
		<g id="Group_16" transform="translate(1195.746 969.427) rotate(90)">
			<path id="Path_1013-2" class="st8" d="M0,261.9l37.3-37.3L0,187.3V261.9z"/>
			<path id="Path_1014-2" class="st9" d="M24.9,237.1v-24.9l12.4,12.4L24.9,237.1z"/>
			<path id="Path_1015-2" class="st9" d="M0,237.1l12.4-12.4L0,212.2V237.1z"/>
			<path id="Path_1016-2" class="st9" d="M12.4,224.6v-24.9l12.4,12.4L12.4,224.6z"/>
			<path id="Path_1017-2" class="st9" d="M0,212.2l12.4-12.4L0,187.3V212.2z"/>
			<path id="Path_1018-2" class="st9" d="M12.4,249.5v-24.9l12.4,12.4L12.4,249.5z"/>
			<path id="Path_1019-2" class="st9" d="M0,261.9l12.4-12.4L0,237.1V261.9z"/>
			<path id="Path_1020-2" class="st8" d="M62.2,224.6l37.3,37.3v-74.6L62.2,224.6z"/>
			<path id="Path_1021-2" class="st9" d="M74.7,212.2v24.9l-12.4-12.4L74.7,212.2z"/>
			<path id="Path_1022-2" class="st9" d="M87.1,224.6l12.4,12.4v-24.9L87.1,224.6z"/>
			<path id="Path_1023-2" class="st9" d="M87.1,224.6v24.9l-12.4-12.4L87.1,224.6z"/>
			<path id="Path_1024-2" class="st9" d="M87.1,249.5l12.4,12.4v-24.9L87.1,249.5z"/>
			<path id="Path_1025-2" class="st9" d="M87.1,199.8v24.9l-12.4-12.4L87.1,199.8z"/>
			<path id="Path_1026-2" class="st9" d="M87.1,199.8l12.4,12.4v-24.9L87.1,199.8z"/>
			<path id="Path_1027-2" class="st8" d="M0,349.9l37.3-37.3L0,275.3V349.9z"/>
			<path id="Path_1028-2" class="st9" d="M24.9,325v-24.9l12.4,12.4L24.9,325z"/>
			<path id="Path_1029-2" class="st9" d="M0,325l12.4-12.4L0,300.2V325z"/>
			<path id="Path_1030-2" class="st9" d="M12.4,312.6v-24.9l12.4,12.4L12.4,312.6z"/>
			<path id="Path_1031-2" class="st9" d="M0,300.2l12.4-12.4L0,275.3V300.2z"/>
			<path id="Path_1032-2" class="st9" d="M12.4,337.5v-24.9L24.9,325L12.4,337.5z"/>
			<path id="Path_1033-2" class="st9" d="M0,349.9l12.4-12.4L0,325V349.9z"/>
			<path id="Path_1034-2" class="st8" d="M62.2,312.6l37.3,37.3v-74.6L62.2,312.6z"/>
			<path id="Path_1035-2" class="st9" d="M74.7,300.2V325l-12.4-12.4L74.7,300.2z"/>
			<path id="Path_1036-2" class="st9" d="M87.1,312.6L99.6,325v-24.9L87.1,312.6z"/>
			<path id="Path_1037-2" class="st9" d="M87.1,312.6v24.9L74.7,325L87.1,312.6z"/>
			<path id="Path_1038-2" class="st9" d="M87.1,337.5l12.4,12.4V325L87.1,337.5z"/>
			<path id="Path_1039-2" class="st9" d="M87.1,287.8v24.9l-12.4-12.4L87.1,287.8z"/>
			<path id="Path_1040-2" class="st9" d="M87.1,287.8l12.4,12.4v-24.9L87.1,287.8z"/>
			<path id="Path_1041-2" class="st9" d="M38.8,297.5h22l-11,11L38.8,297.5z M25.5,284.3H74l-7.7,7.7H33.2L25.5,284.3z M13.1,271.9
				h73.5l-7,6.9H20L13.1,271.9z M21.3,258.2h56.9l8.1,8.1H13.2L21.3,258.2z M33.7,245.8h32.1l6.8,6.8H26.9L33.7,245.8z M49.8,229.8
				l10.5,10.5h-21L49.8,229.8z M89.2,180.1l-10.3,10.3H27.4l5.5,5.5h40.4l-9.5,9.5H42.5L48,211h10.3l-5.4,5.4l-3.1,3.1l-39.4-39.4H0
				l44.6,44.5L0,269.2l44.6,44.5L0,358.2h10.4l9.8-9.8h52.6l-5.5-5.5H25.7l9.5-9.5h22.5l-5.5-5.5H40.8l5.7-5.7l3.3-3.3l39.4,39.4
				h10.4L55,313.7l44.6-44.5L55,224.6l44.6-44.5H89.2z"/>
			<path id="Path_1042-2" class="st8" d="M0,75.1l37.3-37.3L0,0.5V75.1z"/>
			<path id="Path_1043-2" class="st9" d="M24.9,50.2V25.4l12.4,12.4L24.9,50.2z"/>
			<path id="Path_1044-2" class="st9" d="M0,50.2l12.4-12.4L0,25.4V50.2z"/>
			<path id="Path_1045-2" class="st9" d="M12.4,37.8V12.9l12.4,12.4L12.4,37.8z"/>
			<path id="Path_1046-2" class="st9" d="M0,25.4l12.4-12.4L0,0.5V25.4z"/>
			<path id="Path_1047-2" class="st9" d="M12.4,62.6V37.8l12.4,12.4L12.4,62.6z"/>
			<path id="Path_1048-2" class="st9" d="M0,75.1l12.4-12.4L0,50.2V75.1z"/>
			<path id="Path_1049-2" class="st8" d="M62.2,37.8l37.3,37.3V0.5L62.2,37.8z"/>
			<path id="Path_1050-2" class="st9" d="M74.7,25.4v24.9L62.2,37.8L74.7,25.4z"/>
			<path id="Path_1051-2" class="st9" d="M87.1,37.8l12.4,12.4V25.4L87.1,37.8z"/>
			<path id="Path_1052-2" class="st9" d="M87.1,37.8v24.9L74.7,50.2L87.1,37.8z"/>
			<path id="Path_1053-2" class="st9" d="M87.1,62.6l12.4,12.4V50.2L87.1,62.6z"/>
			<path id="Path_1054-2" class="st9" d="M87.1,12.9v24.9L74.7,25.4L87.1,12.9z"/>
			<path id="Path_1055-2" class="st9" d="M87.1,12.9l12.4,12.4V0.5L87.1,12.9z"/>
			<path id="Path_1056-2" class="st8" d="M0,163l37.3-37.3L0,88.5V163z"/>
			<path id="Path_1057-2" class="st9" d="M24.9,138.2v-24.9l12.4,12.4L24.9,138.2z"/>
			<path id="Path_1058-2" class="st9" d="M0,138.2l12.4-12.4L0,113.3V138.2z"/>
			<path id="Path_1059-2" class="st9" d="M12.4,125.8v-24.9l12.4,12.4L12.4,125.8z"/>
			<path id="Path_1060-2" class="st9" d="M0,113.3l12.4-12.4L0,88.5V113.3z"/>
			<path id="Path_1061-2" class="st9" d="M12.4,150.6v-24.9l12.4,12.4L12.4,150.6z"/>
			<path id="Path_1062-2" class="st9" d="M0,163l12.4-12.4L0,138.2V163z"/>
			<path id="Path_1063-2" class="st8" d="M62.2,125.8L99.6,163V88.5L62.2,125.8z"/>
			<path id="Path_1064-2" class="st9" d="M74.7,113.3v24.9l-12.4-12.4L74.7,113.3z"/>
			<path id="Path_1065-2" class="st9" d="M87.1,125.8l12.4,12.4v-24.9L87.1,125.8z"/>
			<path id="Path_1066-2" class="st9" d="M87.1,125.8v24.9l-12.4-12.4L87.1,125.8z"/>
			<path id="Path_1067-2" class="st9" d="M87.1,150.6L99.6,163v-24.9L87.1,150.6z"/>
			<path id="Path_1068-2" class="st9" d="M87.1,100.9v24.9l-12.4-12.4L87.1,100.9z"/>
			<path id="Path_1069-2" class="st9" d="M87.1,100.9l12.4,12.4V88.5L87.1,100.9z"/>
			<path id="Path_1070-2" class="st9" d="M38.8,119.4h22l-11,11L38.8,119.4z M25.5,106.2H74l-7.7,7.7H33.2L25.5,106.2z M13.1,93.7
				h73.5l-7,6.9H20L13.1,93.7z M21.3,80.1h56.9l8.1,8.1H13.2L21.3,80.1z M33.7,67.7h32.1l6.8,6.8H26.9L33.7,67.7z M49.8,51.6
				l10.5,10.5h-21L49.8,51.6z M89.2,1.9L78.9,12.3H27.4l5.5,5.5h40.4l-9.5,9.5H42.5l5.5,5.5h10.3l-5.4,5.4l-3.1,3.1L10.4,1.9H0
				l44.6,44.5L0,91l44.6,44.5L0,180.1h10.4l9.8-9.8h52.6l-5.5-5.5H25.7l9.5-9.5h22.5l-5.5-5.5H40.8l5.7-5.7l3.3-3.3l39.4,39.4h10.4
				L55,135.6L99.6,91L55,46.5L99.6,1.9H89.2z"/>
		</g>
		<g id="Group_9" transform="translate(478 972.427) rotate(90)">
			<path id="Path_1013-3" class="st8" d="M0,269.2l37.3-37.3L0,194.6V269.2z"/>
			<path id="Path_1014-3" class="st9" d="M24.9,244.3v-24.9l12.4,12.4L24.9,244.3z"/>
			<path id="Path_1015-3" class="st9" d="M0,244.3l12.4-12.4L0,219.5V244.3z"/>
			<path id="Path_1016-3" class="st9" d="M12.4,231.9V207l12.4,12.4L12.4,231.9z"/>
			<path id="Path_1017-3" class="st9" d="M0,219.5L12.4,207L0,194.6V219.5z"/>
			<path id="Path_1018-3" class="st9" d="M12.4,256.7v-24.9l12.4,12.4L12.4,256.7z"/>
			<path id="Path_1019-3" class="st9" d="M0,269.2l12.4-12.4L0,244.3V269.2z"/>
			<path id="Path_1020-3" class="st8" d="M62.2,231.9l37.3,37.3v-74.6L62.2,231.9z"/>
			<path id="Path_1021-3" class="st9" d="M74.7,219.5v24.9l-12.4-12.4L74.7,219.5z"/>
			<path id="Path_1022-3" class="st9" d="M87.1,231.9l12.4,12.4v-24.9L87.1,231.9z"/>
			<path id="Path_1023-3" class="st9" d="M87.1,231.9v24.9l-12.4-12.4L87.1,231.9z"/>
			<path id="Path_1024-3" class="st9" d="M87.1,256.7l12.4,12.4v-24.9L87.1,256.7z"/>
			<path id="Path_1025-3" class="st9" d="M87.1,207v24.9l-12.4-12.4L87.1,207z"/>
			<path id="Path_1026-3" class="st9" d="M87.1,207l12.4,12.4v-24.9L87.1,207z"/>
			<path id="Path_1027-3" class="st8" d="M0,357.1l37.3-37.3L0,282.6V357.1z"/>
			<path id="Path_1028-3" class="st9" d="M24.9,332.3v-24.9l12.4,12.4L24.9,332.3z"/>
			<path id="Path_1029-3" class="st9" d="M0,332.3l12.4-12.4L0,307.4V332.3z"/>
			<path id="Path_1030-3" class="st9" d="M12.4,319.9V295l12.4,12.4L12.4,319.9z"/>
			<path id="Path_1031-3" class="st9" d="M0,307.4L12.4,295L0,282.6V307.4z"/>
			<path id="Path_1032-3" class="st9" d="M12.4,344.7v-24.9l12.4,12.4L12.4,344.7z"/>
			<path id="Path_1033-3" class="st9" d="M0,357.1l12.4-12.4L0,332.3V357.1z"/>
			<path id="Path_1034-3" class="st8" d="M62.2,319.9l37.3,37.3v-74.6L62.2,319.9z"/>
			<path id="Path_1035-3" class="st9" d="M74.7,307.4v24.9l-12.4-12.4L74.7,307.4z"/>
			<path id="Path_1036-3" class="st9" d="M87.1,319.9l12.4,12.4v-24.9L87.1,319.9z"/>
			<path id="Path_1037-3" class="st9" d="M87.1,319.9v24.9l-12.4-12.4L87.1,319.9z"/>
			<path id="Path_1038-3" class="st9" d="M87.1,344.7l12.4,12.4v-24.9L87.1,344.7z"/>
			<path id="Path_1039-3" class="st9" d="M87.1,295v24.9l-12.4-12.4L87.1,295z"/>
			<path id="Path_1040-3" class="st9" d="M87.1,295l12.4,12.4v-24.9L87.1,295z"/>
			<path id="Path_1041-3" class="st9" d="M38.8,304.8h22l-11,11L38.8,304.8z M25.5,291.6H74l-7.7,7.7H33.2L25.5,291.6z M13.1,279.1
				h73.5l-7,6.9H20L13.1,279.1z M21.3,265.5h56.9l8.1,8.1H13.2L21.3,265.5z M33.7,253.1h32.1l6.8,6.8H26.9L33.7,253.1z M49.8,237.1
				l10.5,10.5h-21L49.8,237.1z M89.2,187.3l-10.3,10.3H27.4l5.5,5.5h40.4l-9.5,9.5H42.5l5.5,5.5h10.3l-5.4,5.4l-3.1,3.1l-39.4-39.4
				H0l44.6,44.5L0,276.4L44.6,321L0,365.5h10.4l9.8-9.8h52.6l-5.5-5.5H25.7l9.5-9.5h22.5l-5.5-5.5H40.8l5.7-5.7l3.3-3.3l39.4,39.4
				h10.4L55,321l44.6-44.5L55,231.9l44.6-44.5H89.2z"/>
			<path id="Path_1042-3" class="st8" d="M0,82.3L37.3,45L0,7.8V82.3z"/>
			<path id="Path_1043-3" class="st9" d="M24.9,57.5V32.6L37.3,45L24.9,57.5z"/>
			<path id="Path_1044-3" class="st9" d="M0,57.5L12.4,45L0,32.6V57.5z"/>
			<path id="Path_1045-3" class="st9" d="M12.4,45V20.2l12.4,12.4L12.4,45z"/>
			<path id="Path_1046-3" class="st9" d="M0,32.6l12.4-12.4L0,7.8V32.6z"/>
			<path id="Path_1047-3" class="st9" d="M12.4,69.9V45l12.4,12.4L12.4,69.9z"/>
			<path id="Path_1048-3" class="st9" d="M0,82.3l12.4-12.4L0,57.5V82.3z"/>
			<path id="Path_1049-3" class="st8" d="M62.2,45l37.3,37.3V7.8L62.2,45z"/>
			<path id="Path_1050-3" class="st9" d="M74.7,32.6v24.9L62.2,45L74.7,32.6z"/>
			<path id="Path_1051-3" class="st9" d="M87.1,45l12.4,12.4V32.6L87.1,45z"/>
			<path id="Path_1052-3" class="st9" d="M87.1,45v24.9L74.7,57.5L87.1,45z"/>
			<path id="Path_1053-3" class="st9" d="M87.1,69.9l12.4,12.4V57.5L87.1,69.9z"/>
			<path id="Path_1054-3" class="st9" d="M87.1,20.2V45L74.7,32.6L87.1,20.2z"/>
			<path id="Path_1055-3" class="st9" d="M87.1,20.2l12.4,12.4V7.8L87.1,20.2z"/>
			<path id="Path_1056-3" class="st8" d="M0,170.3L37.3,133L0,95.7V170.3z"/>
			<path id="Path_1057-3" class="st9" d="M24.9,145.4v-24.9L37.3,133L24.9,145.4z"/>
			<path id="Path_1058-3" class="st9" d="M0,145.4L12.4,133L0,120.6V145.4z"/>
			<path id="Path_1059-3" class="st9" d="M12.4,133v-24.9l12.4,12.4L12.4,133z"/>
			<path id="Path_1060-3" class="st9" d="M0,120.6l12.4-12.4L0,95.7V120.6z"/>
			<path id="Path_1061-3" class="st9" d="M12.4,157.9V133l12.4,12.4L12.4,157.9z"/>
			<path id="Path_1062-3" class="st9" d="M0,170.3l12.4-12.4L0,145.4V170.3z"/>
			<path id="Path_1063-3" class="st8" d="M62.2,133l37.3,37.3V95.7L62.2,133z"/>
			<path id="Path_1064-3" class="st9" d="M74.7,120.6v24.9L62.2,133L74.7,120.6z"/>
			<path id="Path_1065-3" class="st9" d="M87.1,133l12.4,12.4v-24.9L87.1,133z"/>
			<path id="Path_1066-3" class="st9" d="M87.1,133v24.9l-12.4-12.4L87.1,133z"/>
			<path id="Path_1067-3" class="st9" d="M87.1,157.9l12.4,12.4v-24.9L87.1,157.9z"/>
			<path id="Path_1068-3" class="st9" d="M87.1,108.2V133l-12.4-12.4L87.1,108.2z"/>
			<path id="Path_1069-3" class="st9" d="M87.1,108.2l12.4,12.4V95.7L87.1,108.2z"/>
			<path id="Path_1070-3" class="st9" d="M38.8,117.9h22l-11,11L38.8,117.9z M25.5,104.7H74l-7.7,7.7H33.2L25.5,104.7z M13.1,92.3
				h73.5l-7,6.9H20L13.1,92.3z M21.3,78.6h56.9l8.1,8.1H13.2L21.3,78.6z M33.7,66.3h32.1l6.8,6.8H26.9L33.7,66.3z M49.8,50.2
				l10.5,10.5h-21L49.8,50.2z M89.2,0.5L78.9,10.8H27.4l5.5,5.5h40.4l-9.5,9.5H42.5l5.5,5.5h10.3l-5.4,5.4l-3.1,3.1L10.4,0.5H0
				L44.6,45L0,89.6l44.6,44.5L0,178.7h10.4l9.8-9.8h52.6l-5.5-5.5H25.7l9.5-9.5h22.5l-5.5-5.5H40.8l5.7-5.7l3.3-3.3l39.4,39.4h10.4
				L55,134.1l44.6-44.5L55,45L99.6,0.5H89.2z"/>
		</g>
		<g id="Group_11" transform="translate(843 971) rotate(90)">
			<path id="Path_1013-4" class="st8" d="M0,269.2l37.3-37.3L0,194.6V269.2z"/>
			<path id="Path_1014-4" class="st9" d="M24.9,244.3v-24.9l12.4,12.4L24.9,244.3z"/>
			<path id="Path_1015-4" class="st9" d="M0,244.3l12.4-12.4L0,219.5V244.3z"/>
			<path id="Path_1016-4" class="st9" d="M12.4,231.9V207l12.4,12.4L12.4,231.9z"/>
			<path id="Path_1017-4" class="st9" d="M0,219.5L12.4,207L0,194.6V219.5z"/>
			<path id="Path_1018-4" class="st9" d="M12.4,256.7v-24.9l12.4,12.4L12.4,256.7z"/>
			<path id="Path_1019-4" class="st9" d="M0,269.2l12.4-12.4L0,244.3V269.2z"/>
			<path id="Path_1020-4" class="st8" d="M62.2,231.9l37.3,37.3v-74.6L62.2,231.9z"/>
			<path id="Path_1021-4" class="st9" d="M74.7,219.5v24.9l-12.4-12.4L74.7,219.5z"/>
			<path id="Path_1022-4" class="st9" d="M87.1,231.9l12.4,12.4v-24.9L87.1,231.9z"/>
			<path id="Path_1023-4" class="st9" d="M87.1,231.9v24.9l-12.4-12.4L87.1,231.9z"/>
			<path id="Path_1024-4" class="st9" d="M87.1,256.7l12.4,12.4v-24.9L87.1,256.7z"/>
			<path id="Path_1025-4" class="st9" d="M87.1,207v24.9l-12.4-12.4L87.1,207z"/>
			<path id="Path_1026-4" class="st9" d="M87.1,207l12.4,12.4v-24.9L87.1,207z"/>
			<path id="Path_1027-4" class="st8" d="M0,357.1l37.3-37.3L0,282.6V357.1z"/>
			<path id="Path_1028-4" class="st9" d="M24.9,332.3v-24.9l12.4,12.4L24.9,332.3z"/>
			<path id="Path_1029-4" class="st9" d="M0,332.3l12.4-12.4L0,307.4V332.3z"/>
			<path id="Path_1030-4" class="st9" d="M12.4,319.9V295l12.4,12.4L12.4,319.9z"/>
			<path id="Path_1031-4" class="st9" d="M0,307.4L12.4,295L0,282.6V307.4z"/>
			<path id="Path_1032-4" class="st9" d="M12.4,344.7v-24.9l12.4,12.4L12.4,344.7z"/>
			<path id="Path_1033-4" class="st9" d="M0,357.1l12.4-12.4L0,332.3V357.1z"/>
			<path id="Path_1034-4" class="st8" d="M62.2,319.9l37.3,37.3v-74.6L62.2,319.9z"/>
			<path id="Path_1035-4" class="st9" d="M74.7,307.4v24.9l-12.4-12.4L74.7,307.4z"/>
			<path id="Path_1036-4" class="st9" d="M87.1,319.9l12.4,12.4v-24.9L87.1,319.9z"/>
			<path id="Path_1037-4" class="st9" d="M87.1,319.9v24.9l-12.4-12.4L87.1,319.9z"/>
			<path id="Path_1038-4" class="st9" d="M87.1,344.7l12.4,12.4v-24.9L87.1,344.7z"/>
			<path id="Path_1039-4" class="st9" d="M87.1,295v24.9l-12.4-12.4L87.1,295z"/>
			<path id="Path_1040-4" class="st9" d="M87.1,295l12.4,12.4v-24.9L87.1,295z"/>
			<path id="Path_1041-4" class="st9" d="M38.8,304.8h22l-11,11L38.8,304.8z M25.5,291.6H74l-7.7,7.7H33.2L25.5,291.6z M13.1,279.1
				h73.5l-7,6.9H20L13.1,279.1z M21.3,265.5h56.9l8.1,8.1H13.2L21.3,265.5z M33.7,253.1h32.1l6.8,6.8H26.9L33.7,253.1z M49.8,237.1
				l10.5,10.5h-21L49.8,237.1z M89.2,187.3l-10.3,10.3H27.4l5.5,5.5h40.4l-9.5,9.5H42.5l5.5,5.5h10.3l-5.4,5.4l-3.1,3.1l-39.4-39.4
				H0l44.6,44.5L0,276.4L44.6,321L0,365.5h10.4l9.8-9.8h52.6l-5.5-5.5H25.7l9.5-9.5h22.5l-5.5-5.5H40.8l5.7-5.7l3.3-3.3l39.4,39.4
				h10.4L55,321l44.6-44.5L55,231.9l44.6-44.5H89.2z"/>
			<path id="Path_1042-4" class="st8" d="M0,82.3L37.3,45L0,7.8V82.3z"/>
			<path id="Path_1043-4" class="st9" d="M24.9,57.5V32.6L37.3,45L24.9,57.5z"/>
			<path id="Path_1044-4" class="st9" d="M0,57.5L12.4,45L0,32.6V57.5z"/>
			<path id="Path_1045-4" class="st9" d="M12.4,45V20.2l12.4,12.4L12.4,45z"/>
			<path id="Path_1046-4" class="st9" d="M0,32.6l12.4-12.4L0,7.8V32.6z"/>
			<path id="Path_1047-4" class="st9" d="M12.4,69.9V45l12.4,12.4L12.4,69.9z"/>
			<path id="Path_1048-4" class="st9" d="M0,82.3l12.4-12.4L0,57.5V82.3z"/>
			<path id="Path_1049-4" class="st8" d="M62.2,45l37.3,37.3V7.8L62.2,45z"/>
			<path id="Path_1050-4" class="st9" d="M74.7,32.6v24.9L62.2,45L74.7,32.6z"/>
			<path id="Path_1051-4" class="st9" d="M87.1,45l12.4,12.4V32.6L87.1,45z"/>
			<path id="Path_1052-4" class="st9" d="M87.1,45v24.9L74.7,57.5L87.1,45z"/>
			<path id="Path_1053-4" class="st9" d="M87.1,69.9l12.4,12.4V57.5L87.1,69.9z"/>
			<path id="Path_1054-4" class="st9" d="M87.1,20.2V45L74.7,32.6L87.1,20.2z"/>
			<path id="Path_1055-4" class="st9" d="M87.1,20.2l12.4,12.4V7.8L87.1,20.2z"/>
			<path id="Path_1056-4" class="st8" d="M0,170.3L37.3,133L0,95.7V170.3z"/>
			<path id="Path_1057-4" class="st9" d="M24.9,145.4v-24.9L37.3,133L24.9,145.4z"/>
			<path id="Path_1058-4" class="st9" d="M0,145.4L12.4,133L0,120.6V145.4z"/>
			<path id="Path_1059-4" class="st9" d="M12.4,133v-24.9l12.4,12.4L12.4,133z"/>
			<path id="Path_1060-4" class="st9" d="M0,120.6l12.4-12.4L0,95.7V120.6z"/>
			<path id="Path_1061-4" class="st9" d="M12.4,157.9V133l12.4,12.4L12.4,157.9z"/>
			<path id="Path_1062-4" class="st9" d="M0,170.3l12.4-12.4L0,145.4V170.3z"/>
			<path id="Path_1063-4" class="st8" d="M62.2,133l37.3,37.3V95.7L62.2,133z"/>
			<path id="Path_1064-4" class="st9" d="M74.7,120.6v24.9L62.2,133L74.7,120.6z"/>
			<path id="Path_1065-4" class="st9" d="M87.1,133l12.4,12.4v-24.9L87.1,133z"/>
			<path id="Path_1066-4" class="st9" d="M87.1,133v24.9l-12.4-12.4L87.1,133z"/>
			<path id="Path_1067-4" class="st9" d="M87.1,157.9l12.4,12.4v-24.9L87.1,157.9z"/>
			<path id="Path_1068-4" class="st9" d="M87.1,108.2V133l-12.4-12.4L87.1,108.2z"/>
			<path id="Path_1069-4" class="st9" d="M87.1,108.2l12.4,12.4V95.7L87.1,108.2z"/>
			<path id="Path_1070-4" class="st9" d="M38.8,117.9h22l-11,11L38.8,117.9z M25.5,104.7H74l-7.7,7.7H33.2L25.5,104.7z M13.1,92.3
				h73.5l-7,6.9H20L13.1,92.3z M21.3,78.6h56.9l8.1,8.1H13.2L21.3,78.6z M33.7,66.3h32.1l6.8,6.8H26.9L33.7,66.3z M49.8,50.2
				l10.5,10.5h-21L49.8,50.2z M89.2,0.5L78.9,10.8H27.4l5.5,5.5h40.4l-9.5,9.5H42.5l5.5,5.5h10.3l-5.4,5.4l-3.1,3.1L10.4,0.5H0
				L44.6,45L0,89.6l44.6,44.5L0,178.7h10.4l9.8-9.8h52.6l-5.5-5.5H25.7l9.5-9.5h22.5l-5.5-5.5H40.8l5.7-5.7l3.3-3.3l39.4,39.4h10.4
				L55,134.1l44.6-44.5L55,45L99.6,0.5H89.2z"/>
		</g>
		<g id="Group_14" transform="translate(1811 971)">
			<rect id="Rectangle_896" x="-0.5" class="st8" width="6.7" height="6.7"/>
			<rect id="Rectangle_897" x="6.2" class="st8" width="6.7" height="6.7"/>
			<rect id="Rectangle_898" x="13" class="st8" width="6.7" height="6.7"/>
			<rect id="Rectangle_899" x="-0.5" y="6.7" class="st8" width="6.7" height="6.7"/>
			<rect id="Rectangle_900" x="6.2" y="6.7" class="st8" width="6.7" height="6.7"/>
			<rect id="Rectangle_901" x="-0.5" y="13.5" class="st8" width="6.7" height="6.7"/>
			<rect id="Rectangle_902" x="-0.5" y="20.2" class="st8" width="6.7" height="6.7"/>
			<rect id="Rectangle_903" x="6.2" y="20.2" class="st8" width="6.7" height="6.7"/>
			<rect id="Rectangle_904" x="13" y="20.2" class="st8" width="6.7" height="6.7"/>
			<rect id="Rectangle_905" x="-0.5" y="26.9" class="st8" width="6.7" height="6.7"/>
			<rect id="Rectangle_906" x="6.2" y="26.9" class="st8" width="6.7" height="6.7"/>
			<rect id="Rectangle_907" x="-0.5" y="33.7" class="st8" width="6.7" height="6.7"/>
			<rect id="Rectangle_908" x="-0.5" y="40.4" class="st8" width="6.7" height="6.7"/>
			<rect id="Rectangle_909" x="6.2" y="40.4" class="st8" width="6.7" height="6.7"/>
			<rect id="Rectangle_910" x="13" y="40.4" class="st8" width="6.7" height="6.7"/>
			<rect id="Rectangle_911" x="-0.5" y="47.1" class="st8" width="6.7" height="6.7"/>
			<rect id="Rectangle_912" x="6.2" y="47.1" class="st8" width="6.7" height="6.7"/>
			<rect id="Rectangle_913" x="-0.5" y="53.9" class="st8" width="6.7" height="6.7"/>
			<rect id="Rectangle_914" x="-0.5" y="60.6" class="st8" width="6.7" height="6.7"/>
			<rect id="Rectangle_915" x="6.2" y="60.6" class="st8" width="6.7" height="6.7"/>
			<rect id="Rectangle_916" x="13" y="60.6" class="st8" width="6.7" height="6.7"/>
			<rect id="Rectangle_917" x="-0.5" y="67.3" class="st8" width="6.7" height="6.7"/>
			<rect id="Rectangle_918" x="6.2" y="67.3" class="st8" width="6.7" height="6.7"/>
			<rect id="Rectangle_919" x="-0.5" y="74.1" class="st8" width="6.7" height="6.7"/>
			<rect id="Rectangle_920" x="-0.5" y="80.8" class="st8" width="6.7" height="6.7"/>
			<rect id="Rectangle_921" x="6.2" y="80.8" class="st8" width="6.7" height="6.7"/>
			<rect id="Rectangle_922" x="13" y="80.8" class="st8" width="6.7" height="6.7"/>
			<rect id="Rectangle_923" x="-0.5" y="87.5" class="st8" width="6.7" height="6.7"/>
			<rect id="Rectangle_924" x="-0.5" y="94.3" class="st8" width="6.7" height="6.7"/>
			<rect id="Rectangle_925" x="19.7" class="st8" width="6.7" height="6.7"/>
			<rect id="Rectangle_926" x="26.4" class="st8" width="6.7" height="6.7"/>
			<rect id="Rectangle_927" x="33.2" class="st8" width="6.7" height="6.7"/>
			<rect id="Rectangle_928" x="19.7" y="6.7" class="st8" width="6.7" height="6.7"/>
			<rect id="Rectangle_929" x="26.4" y="6.7" class="st8" width="6.7" height="6.7"/>
			<rect id="Rectangle_930" x="19.7" y="13.5" class="st8" width="6.7" height="6.7"/>
			<rect id="Rectangle_931" x="39.9" class="st8" width="6.7" height="6.7"/>
			<rect id="Rectangle_932" x="46.6" class="st8" width="6.7" height="6.7"/>
			<rect id="Rectangle_933" x="53.4" class="st8" width="6.7" height="6.7"/>
			<rect id="Rectangle_934" x="39.9" y="6.7" class="st8" width="6.7" height="6.7"/>
			<rect id="Rectangle_935" x="46.6" y="6.7" class="st8" width="6.7" height="6.7"/>
			<rect id="Rectangle_936" x="39.9" y="13.5" class="st8" width="6.7" height="6.7"/>
			<rect id="Rectangle_937" x="33.2" y="20.2" class="st8" width="6.7" height="6.7"/>
			<rect id="Rectangle_938" x="26.4" y="26.9" class="st8" width="6.7" height="6.7"/>
			<rect id="Rectangle_939" x="19.7" y="33.7" class="st8" width="6.7" height="6.7"/>
			<rect id="Rectangle_940" x="60.1" class="st8" width="6.7" height="6.7"/>
			<rect id="Rectangle_941" x="66.8" class="st8" width="6.7" height="6.7"/>
			<rect id="Rectangle_942" x="73.6" class="st8" width="6.7" height="6.7"/>
			<rect id="Rectangle_943" x="60.1" y="6.7" class="st8" width="6.7" height="6.7"/>
			<rect id="Rectangle_944" x="66.8" y="6.7" class="st8" width="6.7" height="6.7"/>
			<rect id="Rectangle_945" x="60.1" y="13.5" class="st8" width="6.7" height="6.7"/>
			<rect id="Rectangle_946" x="53.4" y="20.2" class="st8" width="6.7" height="6.7"/>
			<rect id="Rectangle_947" x="46.6" y="26.9" class="st8" width="6.7" height="6.7"/>
			<rect id="Rectangle_948" x="39.9" y="33.7" class="st8" width="6.7" height="6.7"/>
			<rect id="Rectangle_949" x="33.2" y="40.4" class="st8" width="6.7" height="6.7"/>
			<rect id="Rectangle_950" x="26.4" y="47.1" class="st8" width="6.7" height="6.7"/>
			<rect id="Rectangle_951" x="19.7" y="53.9" class="st8" width="6.7" height="6.7"/>
			<rect id="Rectangle_952" x="80.3" class="st8" width="6.7" height="6.7"/>
			<rect id="Rectangle_953" x="87" class="st8" width="6.7" height="6.7"/>
			<rect id="Rectangle_954" x="93.8" class="st8" width="6.7" height="6.7"/>
			<rect id="Rectangle_955" x="80.3" y="6.7" class="st8" width="6.7" height="6.7"/>
			<rect id="Rectangle_956" x="80.3" y="13.5" class="st8" width="6.7" height="6.7"/>
			<rect id="Rectangle_957" x="93.8" y="94.3" class="st8" width="6.7" height="6.7"/>
			<rect id="Rectangle_958" x="87" y="94.3" class="st8" width="6.7" height="6.7"/>
			<rect id="Rectangle_959" x="80.3" y="94.3" class="st8" width="6.7" height="6.7"/>
			<rect id="Rectangle_960" x="93.8" y="87.5" class="st8" width="6.7" height="6.7"/>
			<rect id="Rectangle_961" x="87" y="87.5" class="st8" width="6.7" height="6.7"/>
			<rect id="Rectangle_962" x="93.8" y="80.8" class="st8" width="6.7" height="6.7"/>
			<rect id="Rectangle_963" x="93.8" y="74.1" class="st8" width="6.7" height="6.7"/>
			<rect id="Rectangle_964" x="87" y="74.1" class="st8" width="6.7" height="6.7"/>
			<rect id="Rectangle_965" x="80.3" y="74.1" class="st8" width="6.7" height="6.7"/>
			<rect id="Rectangle_966" x="93.8" y="67.3" class="st8" width="6.7" height="6.7"/>
			<rect id="Rectangle_967" x="87" y="67.3" class="st8" width="6.7" height="6.7"/>
			<rect id="Rectangle_968" x="93.8" y="60.6" class="st8" width="6.7" height="6.7"/>
			<rect id="Rectangle_969" x="93.8" y="53.9" class="st8" width="6.7" height="6.7"/>
			<rect id="Rectangle_970" x="87" y="53.9" class="st8" width="6.7" height="6.7"/>
			<rect id="Rectangle_971" x="80.3" y="53.9" class="st8" width="6.7" height="6.7"/>
			<rect id="Rectangle_972" x="73.6" y="60.6" class="st8" width="6.7" height="6.7"/>
			<rect id="Rectangle_973" x="66.8" y="67.3" class="st8" width="6.7" height="6.7"/>
			<rect id="Rectangle_974" x="60.1" y="74.1" class="st8" width="6.7" height="6.7"/>
			<rect id="Rectangle_975" x="93.8" y="47.1" class="st8" width="6.7" height="6.7"/>
			<rect id="Rectangle_976" x="87" y="47.1" class="st8" width="6.7" height="6.7"/>
			<rect id="Rectangle_977" x="93.8" y="40.4" class="st8" width="6.7" height="6.7"/>
			<rect id="Rectangle_978" x="93.8" y="33.7" class="st8" width="6.7" height="6.7"/>
			<rect id="Rectangle_979" x="87" y="33.7" class="st8" width="6.7" height="6.7"/>
			<rect id="Rectangle_980" x="80.3" y="33.7" class="st8" width="6.7" height="6.7"/>
			<rect id="Rectangle_981" x="73.6" y="40.4" class="st8" width="6.7" height="6.7"/>
			<rect id="Rectangle_982" x="66.8" y="47.1" class="st8" width="6.7" height="6.7"/>
			<rect id="Rectangle_983" x="60.1" y="53.9" class="st8" width="6.7" height="6.7"/>
			<rect id="Rectangle_984" x="53.4" y="60.6" class="st8" width="6.7" height="6.7"/>
			<rect id="Rectangle_985" x="46.6" y="67.3" class="st8" width="6.7" height="6.7"/>
			<rect id="Rectangle_986" x="39.9" y="74.1" class="st8" width="6.7" height="6.7"/>
			<rect id="Rectangle_987" x="93.8" y="26.9" class="st8" width="6.7" height="6.7"/>
			<rect id="Rectangle_988" x="87" y="26.9" class="st8" width="6.7" height="6.7"/>
			<rect id="Rectangle_989" x="93.8" y="20.2" class="st8" width="6.7" height="6.7"/>
			<rect id="Rectangle_990" x="93.8" y="13.5" class="st8" width="6.7" height="6.7"/>
			<rect id="Rectangle_991" x="87" y="13.5" class="st8" width="6.7" height="6.7"/>
			<rect id="Rectangle_992" x="80.3" y="13.5" class="st8" width="6.7" height="6.7"/>
			<rect id="Rectangle_993" x="73.6" y="20.2" class="st8" width="6.7" height="6.7"/>
			<rect id="Rectangle_994" x="66.8" y="26.9" class="st8" width="6.7" height="6.7"/>
			<rect id="Rectangle_995" x="60.1" y="33.7" class="st8" width="6.7" height="6.7"/>
			<rect id="Rectangle_996" x="53.4" y="40.4" class="st8" width="6.7" height="6.7"/>
			<rect id="Rectangle_997" x="46.6" y="47.1" class="st8" width="6.7" height="6.7"/>
			<rect id="Rectangle_998" x="39.9" y="53.9" class="st8" width="6.7" height="6.7"/>
			<rect id="Rectangle_999" x="33.2" y="60.6" class="st8" width="6.7" height="6.7"/>
			<rect id="Rectangle_1000" x="26.4" y="67.3" class="st8" width="6.7" height="6.7"/>
			<rect id="Rectangle_1001" x="19.7" y="74.1" class="st8" width="6.7" height="6.7"/>
			<rect id="Rectangle_1002" x="93.8" y="6.7" class="st8" width="6.7" height="6.7"/>
			<rect id="Rectangle_1003" x="93.8" class="st8" width="6.7" height="6.7"/>
			<rect id="Rectangle_1004" x="73.6" y="94.3" class="st8" width="6.7" height="6.7"/>
			<rect id="Rectangle_1005" x="66.8" y="94.3" class="st8" width="6.7" height="6.7"/>
			<rect id="Rectangle_1006" x="60.1" y="94.3" class="st8" width="6.7" height="6.7"/>
			<rect id="Rectangle_1007" x="73.6" y="87.5" class="st8" width="6.7" height="6.7"/>
			<rect id="Rectangle_1008" x="66.8" y="87.5" class="st8" width="6.7" height="6.7"/>
			<rect id="Rectangle_1009" x="73.6" y="80.8" class="st8" width="6.7" height="6.7"/>
			<rect id="Rectangle_1010" x="53.4" y="94.3" class="st8" width="6.7" height="6.7"/>
			<rect id="Rectangle_1011" x="46.6" y="94.3" class="st8" width="6.7" height="6.7"/>
			<rect id="Rectangle_1012" x="39.9" y="94.3" class="st8" width="6.7" height="6.7"/>
			<rect id="Rectangle_1013" x="53.4" y="87.5" class="st8" width="6.7" height="6.7"/>
			<rect id="Rectangle_1014" x="46.6" y="87.5" class="st8" width="6.7" height="6.7"/>
			<rect id="Rectangle_1015" x="53.4" y="80.8" class="st8" width="6.7" height="6.7"/>
			<rect id="Rectangle_1016" x="33.2" y="94.3" class="st8" width="6.7" height="6.7"/>
			<rect id="Rectangle_1017" x="26.4" y="94.3" class="st8" width="6.7" height="6.7"/>
			<rect id="Rectangle_1018" x="19.7" y="94.3" class="st8" width="6.7" height="6.7"/>
			<rect id="Rectangle_1019" x="33.2" y="87.5" class="st8" width="6.7" height="6.7"/>
			<rect id="Rectangle_1020" x="26.4" y="87.5" class="st8" width="6.7" height="6.7"/>
			<rect id="Rectangle_1021" x="33.2" y="80.8" class="st8" width="6.7" height="6.7"/>
			<rect id="Rectangle_1022" x="13" y="94.3" class="st8" width="6.7" height="6.7"/>
			<rect id="Rectangle_1023" x="6.2" y="94.3" class="st8" width="6.7" height="6.7"/>
			<rect id="Rectangle_1024" x="-0.5" y="94.3" class="st8" width="6.7" height="6.7"/>
			<rect id="Rectangle_1025" x="13" y="87.5" class="st8" width="6.7" height="6.7"/>
			<rect id="Rectangle_1026" x="13" y="80.8" class="st8" width="6.7" height="6.7"/>
		</g>
		<g id="Group_15" transform="translate(9 971)">
			<rect id="Rectangle_896-2" x="-0.5" class="st8" width="6.7" height="6.7"/>
			<rect id="Rectangle_897-2" x="6.2" class="st8" width="6.7" height="6.7"/>
			<rect id="Rectangle_898-2" x="13" class="st8" width="6.7" height="6.7"/>
			<rect id="Rectangle_899-2" x="-0.5" y="6.7" class="st8" width="6.7" height="6.7"/>
			<rect id="Rectangle_900-2" x="6.2" y="6.7" class="st8" width="6.7" height="6.7"/>
			<rect id="Rectangle_901-2" x="-0.5" y="13.5" class="st8" width="6.7" height="6.7"/>
			<rect id="Rectangle_902-2" x="-0.5" y="20.2" class="st8" width="6.7" height="6.7"/>
			<rect id="Rectangle_903-2" x="6.2" y="20.2" class="st8" width="6.7" height="6.7"/>
			<rect id="Rectangle_904-2" x="13" y="20.2" class="st8" width="6.7" height="6.7"/>
			<rect id="Rectangle_905-2" x="-0.5" y="26.9" class="st8" width="6.7" height="6.7"/>
			<rect id="Rectangle_906-2" x="6.2" y="26.9" class="st8" width="6.7" height="6.7"/>
			<rect id="Rectangle_907-2" x="-0.5" y="33.7" class="st8" width="6.7" height="6.7"/>
			<rect id="Rectangle_908-2" x="-0.5" y="40.4" class="st8" width="6.7" height="6.7"/>
			<rect id="Rectangle_909-2" x="6.2" y="40.4" class="st8" width="6.7" height="6.7"/>
			<rect id="Rectangle_910-2" x="13" y="40.4" class="st8" width="6.7" height="6.7"/>
			<rect id="Rectangle_911-2" x="-0.5" y="47.1" class="st8" width="6.7" height="6.7"/>
			<rect id="Rectangle_912-2" x="6.2" y="47.1" class="st8" width="6.7" height="6.7"/>
			<rect id="Rectangle_913-2" x="-0.5" y="53.9" class="st8" width="6.7" height="6.7"/>
			<rect id="Rectangle_914-2" x="-0.5" y="60.6" class="st8" width="6.7" height="6.7"/>
			<rect id="Rectangle_915-2" x="6.2" y="60.6" class="st8" width="6.7" height="6.7"/>
			<rect id="Rectangle_916-2" x="13" y="60.6" class="st8" width="6.7" height="6.7"/>
			<rect id="Rectangle_917-2" x="-0.5" y="67.3" class="st8" width="6.7" height="6.7"/>
			<rect id="Rectangle_918-2" x="6.2" y="67.3" class="st8" width="6.7" height="6.7"/>
			<rect id="Rectangle_919-2" x="-0.5" y="74.1" class="st8" width="6.7" height="6.7"/>
			<rect id="Rectangle_920-2" x="-0.5" y="80.8" class="st8" width="6.7" height="6.7"/>
			<rect id="Rectangle_921-2" x="6.2" y="80.8" class="st8" width="6.7" height="6.7"/>
			<rect id="Rectangle_922-2" x="13" y="80.8" class="st8" width="6.7" height="6.7"/>
			<rect id="Rectangle_923-2" x="-0.5" y="87.5" class="st8" width="6.7" height="6.7"/>
			<rect id="Rectangle_924-2" x="-0.5" y="94.3" class="st8" width="6.7" height="6.7"/>
			<rect id="Rectangle_925-2" x="19.7" class="st8" width="6.7" height="6.7"/>
			<rect id="Rectangle_926-2" x="26.4" class="st8" width="6.7" height="6.7"/>
			<rect id="Rectangle_927-2" x="33.2" class="st8" width="6.7" height="6.7"/>
			<rect id="Rectangle_928-2" x="19.7" y="6.7" class="st8" width="6.7" height="6.7"/>
			<rect id="Rectangle_929-2" x="26.4" y="6.7" class="st8" width="6.7" height="6.7"/>
			<rect id="Rectangle_930-2" x="19.7" y="13.5" class="st8" width="6.7" height="6.7"/>
			<rect id="Rectangle_931-2" x="39.9" class="st8" width="6.7" height="6.7"/>
			<rect id="Rectangle_932-2" x="46.6" class="st8" width="6.7" height="6.7"/>
			<rect id="Rectangle_933-2" x="53.4" class="st8" width="6.7" height="6.7"/>
			<rect id="Rectangle_934-2" x="39.9" y="6.7" class="st8" width="6.7" height="6.7"/>
			<rect id="Rectangle_935-2" x="46.6" y="6.7" class="st8" width="6.7" height="6.7"/>
			<rect id="Rectangle_936-2" x="39.9" y="13.5" class="st8" width="6.7" height="6.7"/>
			<rect id="Rectangle_937-2" x="33.2" y="20.2" class="st8" width="6.7" height="6.7"/>
			<rect id="Rectangle_938-2" x="26.4" y="26.9" class="st8" width="6.7" height="6.7"/>
			<rect id="Rectangle_939-2" x="19.7" y="33.7" class="st8" width="6.7" height="6.7"/>
			<rect id="Rectangle_940-2" x="60.1" class="st8" width="6.7" height="6.7"/>
			<rect id="Rectangle_941-2" x="66.8" class="st8" width="6.7" height="6.7"/>
			<rect id="Rectangle_942-2" x="73.6" class="st8" width="6.7" height="6.7"/>
			<rect id="Rectangle_943-2" x="60.1" y="6.7" class="st8" width="6.7" height="6.7"/>
			<rect id="Rectangle_944-2" x="66.8" y="6.7" class="st8" width="6.7" height="6.7"/>
			<rect id="Rectangle_945-2" x="60.1" y="13.5" class="st8" width="6.7" height="6.7"/>
			<rect id="Rectangle_946-2" x="53.4" y="20.2" class="st8" width="6.7" height="6.7"/>
			<rect id="Rectangle_947-2" x="46.6" y="26.9" class="st8" width="6.7" height="6.7"/>
			<rect id="Rectangle_948-2" x="39.9" y="33.7" class="st8" width="6.7" height="6.7"/>
			<rect id="Rectangle_949-2" x="33.2" y="40.4" class="st8" width="6.7" height="6.7"/>
			<rect id="Rectangle_950-2" x="26.4" y="47.1" class="st8" width="6.7" height="6.7"/>
			<rect id="Rectangle_951-2" x="19.7" y="53.9" class="st8" width="6.7" height="6.7"/>
			<rect id="Rectangle_952-2" x="80.3" class="st8" width="6.7" height="6.7"/>
			<rect id="Rectangle_953-2" x="87" class="st8" width="6.7" height="6.7"/>
			<rect id="Rectangle_954-2" x="93.8" class="st8" width="6.7" height="6.7"/>
			<rect id="Rectangle_955-2" x="80.3" y="6.7" class="st8" width="6.7" height="6.7"/>
			<rect id="Rectangle_956-2" x="80.3" y="13.5" class="st8" width="6.7" height="6.7"/>
			<rect id="Rectangle_957-2" x="93.8" y="94.3" class="st8" width="6.7" height="6.7"/>
			<rect id="Rectangle_958-2" x="87" y="94.3" class="st8" width="6.7" height="6.7"/>
			<rect id="Rectangle_959-2" x="80.3" y="94.3" class="st8" width="6.7" height="6.7"/>
			<rect id="Rectangle_960-2" x="93.8" y="87.5" class="st8" width="6.7" height="6.7"/>
			<rect id="Rectangle_961-2" x="87" y="87.5" class="st8" width="6.7" height="6.7"/>
			<rect id="Rectangle_962-2" x="93.8" y="80.8" class="st8" width="6.7" height="6.7"/>
			<rect id="Rectangle_963-2" x="93.8" y="74.1" class="st8" width="6.7" height="6.7"/>
			<rect id="Rectangle_964-2" x="87" y="74.1" class="st8" width="6.7" height="6.7"/>
			<rect id="Rectangle_965-2" x="80.3" y="74.1" class="st8" width="6.7" height="6.7"/>
			<rect id="Rectangle_966-2" x="93.8" y="67.3" class="st8" width="6.7" height="6.7"/>
			<rect id="Rectangle_967-2" x="87" y="67.3" class="st8" width="6.7" height="6.7"/>
			<rect id="Rectangle_968-2" x="93.8" y="60.6" class="st8" width="6.7" height="6.7"/>
			<rect id="Rectangle_969-2" x="93.8" y="53.9" class="st8" width="6.7" height="6.7"/>
			<rect id="Rectangle_970-2" x="87" y="53.9" class="st8" width="6.7" height="6.7"/>
			<rect id="Rectangle_971-2" x="80.3" y="53.9" class="st8" width="6.7" height="6.7"/>
			<rect id="Rectangle_972-2" x="73.6" y="60.6" class="st8" width="6.7" height="6.7"/>
			<rect id="Rectangle_973-2" x="66.8" y="67.3" class="st8" width="6.7" height="6.7"/>
			<rect id="Rectangle_974-2" x="60.1" y="74.1" class="st8" width="6.7" height="6.7"/>
			<rect id="Rectangle_975-2" x="93.8" y="47.1" class="st8" width="6.7" height="6.7"/>
			<rect id="Rectangle_976-2" x="87" y="47.1" class="st8" width="6.7" height="6.7"/>
			<rect id="Rectangle_977-2" x="93.8" y="40.4" class="st8" width="6.7" height="6.7"/>
			<rect id="Rectangle_978-2" x="93.8" y="33.7" class="st8" width="6.7" height="6.7"/>
			<rect id="Rectangle_979-2" x="87" y="33.7" class="st8" width="6.7" height="6.7"/>
			<rect id="Rectangle_980-2" x="80.3" y="33.7" class="st8" width="6.7" height="6.7"/>
			<rect id="Rectangle_981-2" x="73.6" y="40.4" class="st8" width="6.7" height="6.7"/>
			<rect id="Rectangle_982-2" x="66.8" y="47.1" class="st8" width="6.7" height="6.7"/>
			<rect id="Rectangle_983-2" x="60.1" y="53.9" class="st8" width="6.7" height="6.7"/>
			<rect id="Rectangle_984-2" x="53.4" y="60.6" class="st8" width="6.7" height="6.7"/>
			<rect id="Rectangle_985-2" x="46.6" y="67.3" class="st8" width="6.7" height="6.7"/>
			<rect id="Rectangle_986-2" x="39.9" y="74.1" class="st8" width="6.7" height="6.7"/>
			<rect id="Rectangle_987-2" x="93.8" y="26.9" class="st8" width="6.7" height="6.7"/>
			<rect id="Rectangle_988-2" x="87" y="26.9" class="st8" width="6.7" height="6.7"/>
			<rect id="Rectangle_989-2" x="93.8" y="20.2" class="st8" width="6.7" height="6.7"/>
			<rect id="Rectangle_990-2" x="93.8" y="13.5" class="st8" width="6.7" height="6.7"/>
			<rect id="Rectangle_991-2" x="87" y="13.5" class="st8" width="6.7" height="6.7"/>
			<rect id="Rectangle_992-2" x="80.3" y="13.5" class="st8" width="6.7" height="6.7"/>
			<rect id="Rectangle_993-2" x="73.6" y="20.2" class="st8" width="6.7" height="6.7"/>
			<rect id="Rectangle_994-2" x="66.8" y="26.9" class="st8" width="6.7" height="6.7"/>
			<rect id="Rectangle_995-2" x="60.1" y="33.7" class="st8" width="6.7" height="6.7"/>
			<rect id="Rectangle_996-2" x="53.4" y="40.4" class="st8" width="6.7" height="6.7"/>
			<rect id="Rectangle_997-2" x="46.6" y="47.1" class="st8" width="6.7" height="6.7"/>
			<rect id="Rectangle_998-2" x="39.9" y="53.9" class="st8" width="6.7" height="6.7"/>
			<rect id="Rectangle_999-2" x="33.2" y="60.6" class="st8" width="6.7" height="6.7"/>
			<rect id="Rectangle_1000-2" x="26.4" y="67.3" class="st8" width="6.7" height="6.7"/>
			<rect id="Rectangle_1001-2" x="19.7" y="74.1" class="st8" width="6.7" height="6.7"/>
			<rect id="Rectangle_1002-2" x="93.8" y="6.7" class="st8" width="6.7" height="6.7"/>
			<rect id="Rectangle_1003-2" x="93.8" class="st8" width="6.7" height="6.7"/>
			<rect id="Rectangle_1004-2" x="73.6" y="94.3" class="st8" width="6.7" height="6.7"/>
			<rect id="Rectangle_1005-2" x="66.8" y="94.3" class="st8" width="6.7" height="6.7"/>
			<rect id="Rectangle_1006-2" x="60.1" y="94.3" class="st8" width="6.7" height="6.7"/>
			<rect id="Rectangle_1007-2" x="73.6" y="87.5" class="st8" width="6.7" height="6.7"/>
			<rect id="Rectangle_1008-2" x="66.8" y="87.5" class="st8" width="6.7" height="6.7"/>
			<rect id="Rectangle_1009-2" x="73.6" y="80.8" class="st8" width="6.7" height="6.7"/>
			<rect id="Rectangle_1010-2" x="53.4" y="94.3" class="st8" width="6.7" height="6.7"/>
			<rect id="Rectangle_1011-2" x="46.6" y="94.3" class="st8" width="6.7" height="6.7"/>
			<rect id="Rectangle_1012-2" x="39.9" y="94.3" class="st8" width="6.7" height="6.7"/>
			<rect id="Rectangle_1013-2" x="53.4" y="87.5" class="st8" width="6.7" height="6.7"/>
			<rect id="Rectangle_1014-2" x="46.6" y="87.5" class="st8" width="6.7" height="6.7"/>
			<rect id="Rectangle_1015-2" x="53.4" y="80.8" class="st8" width="6.7" height="6.7"/>
			<rect id="Rectangle_1016-2" x="33.2" y="94.3" class="st8" width="6.7" height="6.7"/>
			<rect id="Rectangle_1017-2" x="26.4" y="94.3" class="st8" width="6.7" height="6.7"/>
			<rect id="Rectangle_1018-2" x="19.7" y="94.3" class="st8" width="6.7" height="6.7"/>
			<rect id="Rectangle_1019-2" x="33.2" y="87.5" class="st8" width="6.7" height="6.7"/>
			<rect id="Rectangle_1020-2" x="26.4" y="87.5" class="st8" width="6.7" height="6.7"/>
			<rect id="Rectangle_1021-2" x="33.2" y="80.8" class="st8" width="6.7" height="6.7"/>
			<rect id="Rectangle_1022-2" x="13" y="94.3" class="st8" width="6.7" height="6.7"/>
			<rect id="Rectangle_1023-2" x="6.2" y="94.3" class="st8" width="6.7" height="6.7"/>
			<rect id="Rectangle_1024-2" x="-0.5" y="94.3" class="st8" width="6.7" height="6.7"/>
			<rect id="Rectangle_1025-2" x="13" y="87.5" class="st8" width="6.7" height="6.7"/>
			<rect id="Rectangle_1026-2" x="13" y="80.8" class="st8" width="6.7" height="6.7"/>
		</g>
		<g>
			<defs>
				<rect id="SVGID_3_" x="1550.5" y="969" width="250" height="100"/>
			</defs>
			<clipPath id="SVGID_4_">
				<use xlink:href="#SVGID_3_"  style="overflow:visible;"/>
			</clipPath>
			<g id="Mask_Group_1" transform="translate(98)" class="st10">
				<g id="Group_17" transform="translate(1811 969.427) rotate(90)">
					<path id="Path_1013-5" class="st8" d="M0,261.9l37.3-37.3L0,187.3V261.9z"/>
					<path id="Path_1014-5" class="st9" d="M24.9,237.1v-24.9l12.4,12.4L24.9,237.1z"/>
					<path id="Path_1015-5" class="st9" d="M0,237.1l12.4-12.4L0,212.2V237.1z"/>
					<path id="Path_1016-5" class="st9" d="M12.4,224.6v-24.9l12.4,12.4L12.4,224.6z"/>
					<path id="Path_1017-5" class="st9" d="M0,212.2l12.4-12.4L0,187.3V212.2z"/>
					<path id="Path_1018-5" class="st9" d="M12.4,249.5v-24.9l12.4,12.4L12.4,249.5z"/>
					<path id="Path_1019-5" class="st9" d="M0,261.9l12.4-12.4L0,237.1V261.9z"/>
					<path id="Path_1020-5" class="st8" d="M62.2,224.6l37.3,37.3v-74.6L62.2,224.6z"/>
					<path id="Path_1021-5" class="st9" d="M74.7,212.2v24.9l-12.4-12.4L74.7,212.2z"/>
					<path id="Path_1022-5" class="st9" d="M87.1,224.6l12.4,12.4v-24.9L87.1,224.6z"/>
					<path id="Path_1023-5" class="st9" d="M87.1,224.6v24.9l-12.4-12.4L87.1,224.6z"/>
					<path id="Path_1024-5" class="st9" d="M87.1,249.5l12.4,12.4v-24.9L87.1,249.5z"/>
					<path id="Path_1025-5" class="st9" d="M87.1,199.8v24.9l-12.4-12.4L87.1,199.8z"/>
					<path id="Path_1026-5" class="st9" d="M87.1,199.8l12.4,12.4v-24.9L87.1,199.8z"/>
					<path id="Path_1027-5" class="st8" d="M0,349.9l37.3-37.3L0,275.3V349.9z"/>
					<path id="Path_1028-5" class="st9" d="M24.9,325v-24.9l12.4,12.4L24.9,325z"/>
					<path id="Path_1029-5" class="st9" d="M0,325l12.4-12.4L0,300.2V325z"/>
					<path id="Path_1030-5" class="st9" d="M12.4,312.6v-24.9l12.4,12.4L12.4,312.6z"/>
					<path id="Path_1031-5" class="st9" d="M0,300.2l12.4-12.4L0,275.3V300.2z"/>
					<path id="Path_1032-5" class="st9" d="M12.4,337.5v-24.9L24.9,325L12.4,337.5z"/>
					<path id="Path_1033-5" class="st9" d="M0,349.9l12.4-12.4L0,325V349.9z"/>
					<path id="Path_1034-5" class="st8" d="M62.2,312.6l37.3,37.3v-74.6L62.2,312.6z"/>
					<path id="Path_1035-5" class="st9" d="M74.7,300.2V325l-12.4-12.4L74.7,300.2z"/>
					<path id="Path_1036-5" class="st9" d="M87.1,312.6L99.6,325v-24.9L87.1,312.6z"/>
					<path id="Path_1037-5" class="st9" d="M87.1,312.6v24.9L74.7,325L87.1,312.6z"/>
					<path id="Path_1038-5" class="st9" d="M87.1,337.5l12.4,12.4V325L87.1,337.5z"/>
					<path id="Path_1039-5" class="st9" d="M87.1,287.8v24.9l-12.4-12.4L87.1,287.8z"/>
					<path id="Path_1040-5" class="st9" d="M87.1,287.8l12.4,12.4v-24.9L87.1,287.8z"/>
					<path id="Path_1041-5" class="st9" d="M38.8,297.5h22l-11,11L38.8,297.5z M25.5,284.3H74l-7.7,7.7H33.2L25.5,284.3z
						 M13.1,271.9h73.5l-7,6.9H20L13.1,271.9z M21.3,258.2h56.9l8.1,8.1H13.2L21.3,258.2z M33.7,245.8h32.1l6.8,6.8H26.9L33.7,245.8
						z M49.8,229.8l10.5,10.5h-21L49.8,229.8z M89.2,180.1l-10.3,10.3H27.4l5.5,5.5h40.4l-9.5,9.5H42.5L48,211h10.3l-5.4,5.4
						l-3.1,3.1l-39.4-39.4H0l44.6,44.5L0,269.2l44.6,44.5L0,358.2h10.4l9.8-9.8h52.6l-5.5-5.5H25.7l9.5-9.5h22.5l-5.5-5.5H40.8
						l5.7-5.7l3.3-3.3l39.4,39.4h10.4L55,313.7l44.6-44.5L55,224.6l44.6-44.5H89.2z"/>
					<path id="Path_1042-5" class="st8" d="M0,75.1l37.3-37.3L0,0.5V75.1z"/>
					<path id="Path_1043-5" class="st9" d="M24.9,50.2V25.4l12.4,12.4L24.9,50.2z"/>
					<path id="Path_1044-5" class="st9" d="M0,50.2l12.4-12.4L0,25.4V50.2z"/>
					<path id="Path_1045-5" class="st9" d="M12.4,37.8V12.9l12.4,12.4L12.4,37.8z"/>
					<path id="Path_1046-5" class="st9" d="M0,25.4l12.4-12.4L0,0.5V25.4z"/>
					<path id="Path_1047-5" class="st9" d="M12.4,62.6V37.8l12.4,12.4L12.4,62.6z"/>
					<path id="Path_1048-5" class="st9" d="M0,75.1l12.4-12.4L0,50.2V75.1z"/>
					<path id="Path_1049-5" class="st8" d="M62.2,37.8l37.3,37.3V0.5L62.2,37.8z"/>
					<path id="Path_1050-5" class="st9" d="M74.7,25.4v24.9L62.2,37.8L74.7,25.4z"/>
					<path id="Path_1051-5" class="st9" d="M87.1,37.8l12.4,12.4V25.4L87.1,37.8z"/>
					<path id="Path_1052-5" class="st9" d="M87.1,37.8v24.9L74.7,50.2L87.1,37.8z"/>
					<path id="Path_1053-5" class="st9" d="M87.1,62.6l12.4,12.4V50.2L87.1,62.6z"/>
					<path id="Path_1054-5" class="st9" d="M87.1,12.9v24.9L74.7,25.4L87.1,12.9z"/>
					<path id="Path_1055-5" class="st9" d="M87.1,12.9l12.4,12.4V0.5L87.1,12.9z"/>
					<path id="Path_1056-5" class="st8" d="M0,163l37.3-37.3L0,88.5V163z"/>
					<path id="Path_1057-5" class="st9" d="M24.9,138.2v-24.9l12.4,12.4L24.9,138.2z"/>
					<path id="Path_1058-5" class="st9" d="M0,138.2l12.4-12.4L0,113.3V138.2z"/>
					<path id="Path_1059-5" class="st9" d="M12.4,125.8v-24.9l12.4,12.4L12.4,125.8z"/>
					<path id="Path_1060-5" class="st9" d="M0,113.3l12.4-12.4L0,88.5V113.3z"/>
					<path id="Path_1061-5" class="st9" d="M12.4,150.6v-24.9l12.4,12.4L12.4,150.6z"/>
					<path id="Path_1062-5" class="st9" d="M0,163l12.4-12.4L0,138.2V163z"/>
					<path id="Path_1063-5" class="st8" d="M62.2,125.8L99.6,163V88.5L62.2,125.8z"/>
					<path id="Path_1064-5" class="st9" d="M74.7,113.3v24.9l-12.4-12.4L74.7,113.3z"/>
					<path id="Path_1065-5" class="st9" d="M87.1,125.8l12.4,12.4v-24.9L87.1,125.8z"/>
					<path id="Path_1066-5" class="st9" d="M87.1,125.8v24.9l-12.4-12.4L87.1,125.8z"/>
					<path id="Path_1067-5" class="st9" d="M87.1,150.6L99.6,163v-24.9L87.1,150.6z"/>
					<path id="Path_1068-5" class="st9" d="M87.1,100.9v24.9l-12.4-12.4L87.1,100.9z"/>
					<path id="Path_1069-5" class="st9" d="M87.1,100.9l12.4,12.4V88.5L87.1,100.9z"/>
					<path id="Path_1070-5" class="st9" d="M38.8,119.4h22l-11,11L38.8,119.4z M25.5,106.2H74l-7.7,7.7H33.2L25.5,106.2z M13.1,93.7
						h73.5l-7,6.9H20L13.1,93.7z M21.3,80.1h56.9l8.1,8.1H13.2L21.3,80.1z M33.7,67.7h32.1l6.8,6.8H26.9L33.7,67.7z M49.8,51.6
						l10.5,10.5h-21L49.8,51.6z M89.2,1.9L78.9,12.3H27.4l5.5,5.5h40.4l-9.5,9.5H42.5l5.5,5.5h10.3l-5.4,5.4l-3.1,3.1L10.4,1.9H0
						l44.6,44.5L0,91l44.6,44.5L0,180.1h10.4l9.8-9.8h52.6l-5.5-5.5H25.7l9.5-9.5h22.5l-5.5-5.5H40.8l5.7-5.7l3.3-3.3l39.4,39.4
						h10.4L55,135.6L99.6,91L55,46.5L99.6,1.9H89.2z"/>
				</g>
			</g>
		</g>
	</g>
</g>
</svg>
